<?xml version="1.0" encoding="UTF-8" standalone="no"?>
<!DOCTYPE svg PUBLIC "-//W3C//DTD SVG 1.1//EN"
 "http://www.w3.org/Graphics/SVG/1.1/DTD/svg11.dtd">
<!-- Generated by graphviz version 2.43.0 (0)
 -->
<!-- Title: %3 Pages: 1 -->
<svg width="212pt" height="578pt"
 viewBox="0.00 0.00 212.50 577.99" xmlns="http://www.w3.org/2000/svg" xmlns:xlink="http://www.w3.org/1999/xlink">
<g id="graph0" class="graph" transform="scale(1 1) rotate(0) translate(4 573.99)">
<title>%3</title>
<polygon fill="white" stroke="transparent" points="-4,4 -4,-573.99 208.5,-573.99 208.5,4 -4,4"/>
<!-- 1 -->
<g id="node1" class="node">
<title>1</title>
<ellipse fill="none" stroke="black" cx="65" cy="-464.99" rx="18" ry="18"/>
<text text-anchor="middle" x="65" y="-461.29" font-family="Times,serif" font-size="14.00">1</text>
</g>
<!-- 2 -->
<g id="node2" class="node">
<title>2</title>
<ellipse fill="none" stroke="black" cx="18" cy="-376.49" rx="18" ry="18"/>
<text text-anchor="middle" x="18" y="-372.79" font-family="Times,serif" font-size="14.00">2</text>
</g>
<!-- 4 -->
<g id="node3" class="node">
<title>4</title>
<ellipse fill="green" stroke="green" cx="119" cy="-551.99" rx="18" ry="18"/>
<text text-anchor="middle" x="119" y="-548.29" font-family="Times,serif" font-size="14.00" fill="white">4</text>
</g>
<!-- 2&#45;&gt;4 -->
<g id="edge1" class="edge">
<title>2&#45;&gt;4</title>
<path fill="none" stroke="black" d="M15.38,-394.43C12.84,-416.36 11.39,-455.07 27,-482.99 41.86,-509.57 71.92,-528.7 93.64,-539.77"/>
<polygon fill="black" stroke="black" points="92.13,-542.93 102.66,-544.15 95.19,-536.63 92.13,-542.93"/>
<text text-anchor="middle" x="32.5" y="-461.29" font-family="Times,serif" font-size="14.00"> 9</text>
</g>
<!-- 4&#45;&gt;1 -->
<g id="edge3" class="edge">
<title>4&#45;&gt;1</title>
<path fill="none" stroke="black" d="M109.59,-536.18C101.39,-523.26 89.34,-504.29 79.83,-489.33"/>
<polygon fill="black" stroke="black" points="82.61,-487.19 74.3,-480.62 76.71,-490.94 82.61,-487.19"/>
<text text-anchor="middle" x="101.5" y="-504.79" font-family="Times,serif" font-size="14.00"> 5</text>
</g>
<!-- 5 -->
<g id="node4" class="node">
<title>5</title>
<ellipse fill="none" stroke="black" cx="119" cy="-464.99" rx="18" ry="18"/>
<text text-anchor="middle" x="119" y="-461.29" font-family="Times,serif" font-size="14.00">5</text>
</g>
<!-- 4&#45;&gt;5 -->
<g id="edge5" class="edge">
<title>4&#45;&gt;5</title>
<path fill="none" stroke="black" d="M119,-533.79C119,-522.15 119,-506.53 119,-493.22"/>
<polygon fill="black" stroke="black" points="122.5,-493.16 119,-483.16 115.5,-493.16 122.5,-493.16"/>
<text text-anchor="middle" x="128" y="-504.79" font-family="Times,serif" font-size="14.00"> 11</text>
</g>
<!-- 3 -->
<g id="node15" class="node">
<title>3</title>
<ellipse fill="none" stroke="black" cx="173" cy="-464.99" rx="18" ry="18"/>
<text text-anchor="middle" x="173" y="-461.29" font-family="Times,serif" font-size="14.00">3</text>
</g>
<!-- 4&#45;&gt;3 -->
<g id="edge4" class="edge">
<title>4&#45;&gt;3</title>
<path fill="none" stroke="black" d="M128.41,-536.18C136.61,-523.26 148.66,-504.29 158.17,-489.33"/>
<polygon fill="black" stroke="black" points="161.29,-490.94 163.7,-480.62 155.39,-487.19 161.29,-490.94"/>
<text text-anchor="middle" x="154.5" y="-504.79" font-family="Times,serif" font-size="14.00"> 5</text>
</g>
<!-- 5&#45;&gt;2 -->
<g id="edge6" class="edge">
<title>5&#45;&gt;2</title>
<path fill="none" stroke="black" d="M105.8,-452.68C88.78,-438.11 59.01,-412.61 38.91,-395.39"/>
<polygon fill="black" stroke="black" points="41.08,-392.65 31.21,-388.8 36.53,-397.96 41.08,-392.65"/>
<text text-anchor="middle" x="83.5" y="-417.79" font-family="Times,serif" font-size="14.00"> 8</text>
</g>
<!-- 13 -->
<g id="node12" class="node">
<title>13</title>
<ellipse fill="blue" stroke="blue" cx="73" cy="-376.49" rx="19.5" ry="19.5"/>
<text text-anchor="middle" x="73" y="-372.79" font-family="Times,serif" font-size="14.00" fill="white">13</text>
</g>
<!-- 5&#45;&gt;13 -->
<g id="edge7" class="edge">
<title>5&#45;&gt;13</title>
<path fill="none" stroke="black" d="M110.78,-448.52C104.08,-435.93 94.48,-417.88 86.63,-403.12"/>
<polygon fill="black" stroke="black" points="89.56,-401.18 81.78,-394 83.38,-404.47 89.56,-401.18"/>
<text text-anchor="middle" x="106.5" y="-417.79" font-family="Times,serif" font-size="14.00"> 1</text>
</g>
<!-- 15 -->
<g id="node14" class="node">
<title>15</title>
<ellipse fill="none" stroke="black" cx="130" cy="-376.49" rx="19.5" ry="19.5"/>
<text text-anchor="middle" x="130" y="-372.79" font-family="Times,serif" font-size="14.00">15</text>
</g>
<!-- 5&#45;&gt;15 -->
<g id="edge8" class="edge">
<title>5&#45;&gt;15</title>
<path fill="none" stroke="black" d="M121.17,-446.9C122.65,-435.32 124.63,-419.74 126.34,-406.27"/>
<polygon fill="black" stroke="black" points="129.85,-406.4 127.64,-396.04 122.91,-405.52 129.85,-406.4"/>
<text text-anchor="middle" x="131.5" y="-417.79" font-family="Times,serif" font-size="14.00"> 2</text>
</g>
<!-- 6 -->
<g id="node5" class="node">
<title>6</title>
<ellipse fill="none" stroke="black" cx="185" cy="-376.49" rx="18" ry="18"/>
<text text-anchor="middle" x="185" y="-372.79" font-family="Times,serif" font-size="14.00">6</text>
</g>
<!-- 7 -->
<g id="node6" class="node">
<title>7</title>
<ellipse fill="none" stroke="black" cx="185" cy="-286.49" rx="18" ry="18"/>
<text text-anchor="middle" x="185" y="-282.79" font-family="Times,serif" font-size="14.00">7</text>
</g>
<!-- 6&#45;&gt;7 -->
<g id="edge9" class="edge">
<title>6&#45;&gt;7</title>
<path fill="none" stroke="black" d="M185,-358.1C185,-345.73 185,-328.86 185,-314.71"/>
<polygon fill="black" stroke="black" points="188.5,-314.54 185,-304.54 181.5,-314.54 188.5,-314.54"/>
<text text-anchor="middle" x="190.5" y="-327.79" font-family="Times,serif" font-size="14.00"> 1</text>
</g>
<!-- 8 -->
<g id="node7" class="node">
<title>8</title>
<ellipse fill="red" stroke="red" cx="185" cy="-196.49" rx="18" ry="18"/>
<text text-anchor="middle" x="185" y="-192.79" font-family="Times,serif" font-size="14.00" fill="white">8</text>
</g>
<!-- 7&#45;&gt;8 -->
<g id="edge10" class="edge">
<title>7&#45;&gt;8</title>
<path fill="none" stroke="black" d="M185,-268.11C185,-255.73 185,-238.86 185,-224.71"/>
<polygon fill="black" stroke="black" points="188.5,-224.54 185,-214.54 181.5,-224.54 188.5,-224.54"/>
<text text-anchor="middle" x="190.5" y="-237.79" font-family="Times,serif" font-size="14.00"> 1</text>
</g>
<!-- 9 -->
<g id="node8" class="node">
<title>9</title>
<ellipse fill="none" stroke="black" cx="185" cy="-108" rx="18" ry="18"/>
<text text-anchor="middle" x="185" y="-104.3" font-family="Times,serif" font-size="14.00">9</text>
</g>
<!-- 8&#45;&gt;9 -->
<g id="edge11" class="edge">
<title>8&#45;&gt;9</title>
<path fill="none" stroke="black" d="M185,-178.41C185,-166.44 185,-150.2 185,-136.43"/>
<polygon fill="black" stroke="black" points="188.5,-136.05 185,-126.05 181.5,-136.05 188.5,-136.05"/>
<text text-anchor="middle" x="190.5" y="-147.8" font-family="Times,serif" font-size="14.00"> 1</text>
</g>
<!-- 10 -->
<g id="node9" class="node">
<title>10</title>
<ellipse fill="yellow" stroke="yellow" cx="185" cy="-19.5" rx="19.5" ry="19.5"/>
<text text-anchor="middle" x="185" y="-15.8" font-family="Times,serif" font-size="14.00">10</text>
</g>
<!-- 9&#45;&gt;10 -->
<g id="edge12" class="edge">
<title>9&#45;&gt;10</title>
<path fill="none" stroke="black" d="M185,-89.91C185,-78.33 185,-62.75 185,-49.28"/>
<polygon fill="black" stroke="black" points="188.5,-49.05 185,-39.05 181.5,-49.05 188.5,-49.05"/>
<text text-anchor="middle" x="190.5" y="-60.8" font-family="Times,serif" font-size="14.00"> 1</text>
</g>
<!-- 11 -->
<g id="node10" class="node">
<title>11</title>
<ellipse fill="none" stroke="black" cx="73" cy="-286.49" rx="19.5" ry="19.5"/>
<text text-anchor="middle" x="73" y="-282.79" font-family="Times,serif" font-size="14.00">11</text>
</g>
<!-- 12 -->
<g id="node11" class="node">
<title>12</title>
<ellipse fill="none" stroke="black" cx="45" cy="-196.49" rx="19.5" ry="19.5"/>
<text text-anchor="middle" x="45" y="-192.79" font-family="Times,serif" font-size="14.00">12</text>
</g>
<!-- 11&#45;&gt;12 -->
<g id="edge14" class="edge">
<title>11&#45;&gt;12</title>
<path fill="none" stroke="black" d="M67.33,-267.68C63.42,-255.4 58.15,-238.83 53.71,-224.88"/>
<polygon fill="black" stroke="black" points="57.03,-223.74 50.66,-215.28 50.35,-225.87 57.03,-223.74"/>
<text text-anchor="middle" x="66.5" y="-237.79" font-family="Times,serif" font-size="14.00"> 7</text>
</g>
<!-- 14 -->
<g id="node13" class="node">
<title>14</title>
<ellipse fill="none" stroke="black" cx="102" cy="-196.49" rx="19.5" ry="19.5"/>
<text text-anchor="middle" x="102" y="-192.79" font-family="Times,serif" font-size="14.00">14</text>
</g>
<!-- 11&#45;&gt;14 -->
<g id="edge15" class="edge">
<title>11&#45;&gt;14</title>
<path fill="none" stroke="black" d="M78.87,-267.68C82.92,-255.4 88.38,-238.83 92.98,-224.88"/>
<polygon fill="black" stroke="black" points="96.33,-225.87 96.14,-215.28 89.69,-223.68 96.33,-225.87"/>
<text text-anchor="middle" x="95.5" y="-237.79" font-family="Times,serif" font-size="14.00"> 7</text>
</g>
<!-- 13&#45;&gt;11 -->
<g id="edge13" class="edge">
<title>13&#45;&gt;11</title>
<path fill="none" stroke="black" d="M73,-356.83C73,-345.04 73,-329.58 73,-316.25"/>
<polygon fill="black" stroke="black" points="76.5,-316.13 73,-306.13 69.5,-316.13 76.5,-316.13"/>
<text text-anchor="middle" x="78.5" y="-327.79" font-family="Times,serif" font-size="14.00"> 4</text>
</g>
<!-- 3&#45;&gt;6 -->
<g id="edge2" class="edge">
<title>3&#45;&gt;6</title>
<path fill="none" stroke="black" d="M175.37,-446.9C177.05,-434.81 179.33,-418.36 181.25,-404.51"/>
<polygon fill="black" stroke="black" points="184.73,-404.93 182.63,-394.54 177.79,-403.97 184.73,-404.93"/>
<text text-anchor="middle" x="184.5" y="-417.79" font-family="Times,serif" font-size="14.00"> 1</text>
</g>
</g>
</svg>
