<?xml version="1.0" encoding="UTF-8" standalone="no"?>
<!DOCTYPE svg PUBLIC "-//W3C//DTD SVG 1.1//EN"
 "http://www.w3.org/Graphics/SVG/1.1/DTD/svg11.dtd">
<!-- Generated by graphviz version 2.43.0 (0)
 -->
<!-- Title: %3 Pages: 1 -->
<svg width="317pt" height="401pt"
 viewBox="0.00 0.00 317.50 400.99" xmlns="http://www.w3.org/2000/svg" xmlns:xlink="http://www.w3.org/1999/xlink">
<g id="graph0" class="graph" transform="scale(1 1) rotate(0) translate(4 396.99)">
<title>%3</title>
<polygon fill="white" stroke="transparent" points="-4,4 -4,-396.99 313.5,-396.99 313.5,4 -4,4"/>
<!-- 1 -->
<g id="node1" class="node">
<title>1</title>
<ellipse fill="green" stroke="green" cx="119" cy="-197.99" rx="18" ry="18"/>
<text text-anchor="middle" x="119" y="-194.29" font-family="Times,serif" font-size="14.00" fill="white">1</text>
</g>
<!-- 2 -->
<g id="node2" class="node">
<title>2</title>
<ellipse fill="none" stroke="black" cx="132" cy="-19.5" rx="18" ry="18"/>
<text text-anchor="middle" x="132" y="-15.8" font-family="Times,serif" font-size="14.00">2</text>
</g>
<!-- 4 -->
<g id="node3" class="node">
<title>4</title>
<ellipse fill="none" stroke="black" cx="136" cy="-286.49" rx="18" ry="18"/>
<text text-anchor="middle" x="136" y="-282.79" font-family="Times,serif" font-size="14.00">4</text>
</g>
<!-- 4&#45;&gt;1 -->
<g id="edge4" class="edge">
<title>4&#45;&gt;1</title>
<path fill="none" stroke="black" d="M132.64,-268.4C130.25,-256.24 126.99,-239.66 124.26,-225.75"/>
<polygon fill="black" stroke="black" points="127.66,-224.89 122.29,-215.75 120.79,-226.24 127.66,-224.89"/>
<text text-anchor="middle" x="133.5" y="-237.79" font-family="Times,serif" font-size="14.00"> 5</text>
</g>
<!-- 5 -->
<g id="node4" class="node">
<title>5</title>
<ellipse fill="none" stroke="black" cx="173" cy="-197.99" rx="18" ry="18"/>
<text text-anchor="middle" x="173" y="-194.29" font-family="Times,serif" font-size="14.00">5</text>
</g>
<!-- 4&#45;&gt;5 -->
<g id="edge5" class="edge">
<title>4&#45;&gt;5</title>
<path fill="none" stroke="black" d="M142.79,-269.63C148.21,-256.95 155.92,-238.93 162.19,-224.27"/>
<polygon fill="black" stroke="black" points="165.54,-225.33 166.26,-214.76 159.11,-222.58 165.54,-225.33"/>
<text text-anchor="middle" x="166" y="-237.79" font-family="Times,serif" font-size="14.00"> 11</text>
</g>
<!-- 6 -->
<g id="node5" class="node">
<title>6</title>
<ellipse fill="red" stroke="red" cx="258" cy="-197.99" rx="18" ry="18"/>
<text text-anchor="middle" x="258" y="-194.29" font-family="Times,serif" font-size="14.00" fill="white">6</text>
</g>
<!-- 4&#45;&gt;6 -->
<g id="edge3" class="edge">
<title>4&#45;&gt;6</title>
<path fill="none" stroke="black" d="M150.47,-275.23C171.39,-260.4 210.26,-232.84 235.09,-215.24"/>
<polygon fill="black" stroke="black" points="237.41,-217.88 243.54,-209.24 233.36,-212.17 237.41,-217.88"/>
<text text-anchor="middle" x="212.5" y="-237.79" font-family="Times,serif" font-size="14.00"> 1</text>
</g>
<!-- 5&#45;&gt;2 -->
<g id="edge6" class="edge">
<title>5&#45;&gt;2</title>
<path fill="none" stroke="black" d="M164.13,-182.19C156.58,-168.8 146.16,-148.28 141,-128.99 133.78,-102 131.9,-70.01 131.6,-47.79"/>
<polygon fill="black" stroke="black" points="135.1,-47.72 131.56,-37.73 128.1,-47.75 135.1,-47.72"/>
<text text-anchor="middle" x="146.5" y="-105.79" font-family="Times,serif" font-size="14.00"> 8</text>
</g>
<!-- 11 -->
<g id="node10" class="node">
<title>11</title>
<ellipse fill="blue" stroke="blue" cx="72" cy="-109.49" rx="19.5" ry="19.5"/>
<text text-anchor="middle" x="72" y="-105.79" font-family="Times,serif" font-size="14.00" fill="white">11</text>
</g>
<!-- 5&#45;&gt;11 -->
<g id="edge7" class="edge">
<title>5&#45;&gt;11</title>
<path fill="none" stroke="black" d="M158.35,-187.29C154.4,-184.81 150.09,-182.21 146,-179.99 129.22,-170.89 121.56,-174.34 107,-161.99 98.59,-154.86 91.32,-145.24 85.63,-136.24"/>
<polygon fill="black" stroke="black" points="88.59,-134.37 80.47,-127.57 82.57,-137.95 88.59,-134.37"/>
<text text-anchor="middle" x="112.5" y="-150.79" font-family="Times,serif" font-size="14.00"> 1</text>
</g>
<!-- 12 -->
<g id="node11" class="node">
<title>12</title>
<ellipse fill="none" stroke="black" cx="180" cy="-109.49" rx="19.5" ry="19.5"/>
<text text-anchor="middle" x="180" y="-105.79" font-family="Times,serif" font-size="14.00">12</text>
</g>
<!-- 5&#45;&gt;12 -->
<g id="edge8" class="edge">
<title>5&#45;&gt;12</title>
<path fill="none" stroke="black" d="M174.38,-179.9C175.32,-168.33 176.58,-152.74 177.67,-139.28"/>
<polygon fill="black" stroke="black" points="181.18,-139.3 178.5,-129.05 174.2,-138.73 181.18,-139.3"/>
<text text-anchor="middle" x="181.5" y="-150.79" font-family="Times,serif" font-size="14.00"> 2</text>
</g>
<!-- 9 -->
<g id="node8" class="node">
<title>9</title>
<ellipse fill="none" stroke="black" cx="235" cy="-109.49" rx="18" ry="18"/>
<text text-anchor="middle" x="235" y="-105.79" font-family="Times,serif" font-size="14.00">9</text>
</g>
<!-- 6&#45;&gt;9 -->
<g id="edge9" class="edge">
<title>6&#45;&gt;9</title>
<path fill="none" stroke="black" d="M251.97,-180.74C249.92,-174.88 247.72,-168.18 246,-161.99 243.79,-154.03 241.77,-145.27 240.08,-137.27"/>
<polygon fill="black" stroke="black" points="243.48,-136.42 238.06,-127.32 236.62,-137.81 243.48,-136.42"/>
<text text-anchor="middle" x="251.5" y="-150.79" font-family="Times,serif" font-size="14.00"> 1</text>
</g>
<!-- 13 -->
<g id="node12" class="node">
<title>13</title>
<ellipse fill="yellow" stroke="yellow" cx="290" cy="-109.49" rx="19.5" ry="19.5"/>
<text text-anchor="middle" x="290" y="-105.79" font-family="Times,serif" font-size="14.00">13</text>
</g>
<!-- 6&#45;&gt;13 -->
<g id="edge10" class="edge">
<title>6&#45;&gt;13</title>
<path fill="none" stroke="black" d="M264.02,-180.72C268.48,-168.67 274.66,-151.97 279.87,-137.88"/>
<polygon fill="black" stroke="black" points="283.27,-138.77 283.46,-128.18 276.71,-136.34 283.27,-138.77"/>
<text text-anchor="middle" x="280.5" y="-150.79" font-family="Times,serif" font-size="14.00"> 2</text>
</g>
<!-- 7 -->
<g id="node6" class="node">
<title>7</title>
<ellipse fill="none" stroke="black" cx="18" cy="-286.49" rx="18" ry="18"/>
<text text-anchor="middle" x="18" y="-282.79" font-family="Times,serif" font-size="14.00">7</text>
</g>
<!-- 8 -->
<g id="node7" class="node">
<title>8</title>
<ellipse fill="none" stroke="black" cx="18" cy="-197.99" rx="18" ry="18"/>
<text text-anchor="middle" x="18" y="-194.29" font-family="Times,serif" font-size="14.00">8</text>
</g>
<!-- 7&#45;&gt;8 -->
<g id="edge11" class="edge">
<title>7&#45;&gt;8</title>
<path fill="none" stroke="black" d="M18,-268.4C18,-256.44 18,-240.19 18,-226.43"/>
<polygon fill="black" stroke="black" points="21.5,-226.05 18,-216.05 14.5,-226.05 21.5,-226.05"/>
<text text-anchor="middle" x="23.5" y="-237.79" font-family="Times,serif" font-size="14.00"> 1</text>
</g>
<!-- 8&#45;&gt;11 -->
<g id="edge12" class="edge">
<title>8&#45;&gt;11</title>
<path fill="none" stroke="black" d="M26.34,-181.94C31.99,-171.92 39.72,-158.53 47,-146.99 49.63,-142.83 52.51,-138.46 55.35,-134.25"/>
<polygon fill="black" stroke="black" points="58.27,-136.18 61.03,-125.95 52.5,-132.23 58.27,-136.18"/>
<text text-anchor="middle" x="52.5" y="-150.79" font-family="Times,serif" font-size="14.00"> 1</text>
</g>
<!-- 10 -->
<g id="node9" class="node">
<title>10</title>
<ellipse fill="none" stroke="black" cx="191" cy="-286.49" rx="19.5" ry="19.5"/>
<text text-anchor="middle" x="191" y="-282.79" font-family="Times,serif" font-size="14.00">10</text>
</g>
<!-- 11&#45;&gt;2 -->
<g id="edge13" class="edge">
<title>11&#45;&gt;2</title>
<path fill="none" stroke="black" d="M82.71,-92.71C89.63,-82.51 98.84,-68.96 107,-57 110.06,-52.51 113.34,-47.72 116.48,-43.14"/>
<polygon fill="black" stroke="black" points="119.49,-44.93 122.25,-34.7 113.71,-40.97 119.49,-44.93"/>
<text text-anchor="middle" x="112.5" y="-60.8" font-family="Times,serif" font-size="14.00"> 7</text>
</g>
<!-- 11&#45;&gt;4 -->
<g id="edge14" class="edge">
<title>11&#45;&gt;4</title>
<path fill="none" stroke="black" d="M70.43,-129.15C69.3,-150.82 69.62,-187.28 81,-215.99 88.6,-235.18 103.34,-253.35 115.65,-266.29"/>
<polygon fill="black" stroke="black" points="113.39,-268.98 122.91,-273.64 118.37,-264.06 113.39,-268.98"/>
<text text-anchor="middle" x="86.5" y="-194.29" font-family="Times,serif" font-size="14.00"> 7</text>
</g>
<!-- 14 -->
<g id="node13" class="node">
<title>14</title>
<ellipse fill="none" stroke="black" cx="72" cy="-19.5" rx="19.5" ry="19.5"/>
<text text-anchor="middle" x="72" y="-15.8" font-family="Times,serif" font-size="14.00">14</text>
</g>
<!-- 11&#45;&gt;14 -->
<g id="edge15" class="edge">
<title>11&#45;&gt;14</title>
<path fill="none" stroke="black" d="M72,-89.83C72,-78.05 72,-62.59 72,-49.26"/>
<polygon fill="black" stroke="black" points="75.5,-49.13 72,-39.13 68.5,-49.13 75.5,-49.13"/>
<text text-anchor="middle" x="77.5" y="-60.8" font-family="Times,serif" font-size="14.00"> 8</text>
</g>
<!-- 15 -->
<g id="node14" class="node">
<title>15</title>
<ellipse fill="none" stroke="black" cx="290" cy="-19.5" rx="19.5" ry="19.5"/>
<text text-anchor="middle" x="290" y="-15.8" font-family="Times,serif" font-size="14.00">15</text>
</g>
<!-- 13&#45;&gt;15 -->
<g id="edge16" class="edge">
<title>13&#45;&gt;15</title>
<path fill="none" stroke="black" d="M290,-89.83C290,-78.05 290,-62.59 290,-49.26"/>
<polygon fill="black" stroke="black" points="293.5,-49.13 290,-39.13 286.5,-49.13 293.5,-49.13"/>
<text text-anchor="middle" x="295.5" y="-60.8" font-family="Times,serif" font-size="14.00"> 4</text>
</g>
<!-- 3 -->
<g id="node15" class="node">
<title>3</title>
<ellipse fill="none" stroke="black" cx="136" cy="-374.99" rx="18" ry="18"/>
<text text-anchor="middle" x="136" y="-371.29" font-family="Times,serif" font-size="14.00">3</text>
</g>
<!-- 3&#45;&gt;4 -->
<g id="edge1" class="edge">
<title>3&#45;&gt;4</title>
<path fill="none" stroke="black" d="M136,-356.9C136,-344.93 136,-328.69 136,-314.92"/>
<polygon fill="black" stroke="black" points="139.5,-314.55 136,-304.55 132.5,-314.55 139.5,-314.55"/>
<text text-anchor="middle" x="141.5" y="-327.79" font-family="Times,serif" font-size="14.00"> 9</text>
</g>
<!-- 3&#45;&gt;10 -->
<g id="edge2" class="edge">
<title>3&#45;&gt;10</title>
<path fill="none" stroke="black" d="M145.33,-359.32C153.58,-346.34 165.78,-327.16 175.49,-311.88"/>
<polygon fill="black" stroke="black" points="178.46,-313.73 180.88,-303.41 172.56,-309.97 178.46,-313.73"/>
<text text-anchor="middle" x="171.5" y="-327.79" font-family="Times,serif" font-size="14.00"> 5</text>
</g>
</g>
</svg>
