<?xml version="1.0" encoding="UTF-8" standalone="no"?>
<!DOCTYPE svg PUBLIC "-//W3C//DTD SVG 1.1//EN"
 "http://www.w3.org/Graphics/SVG/1.1/DTD/svg11.dtd">
<!-- Generated by graphviz version 2.43.0 (0)
 -->
<!-- Title: %3 Pages: 1 -->
<svg width="352pt" height="485pt"
 viewBox="0.00 0.00 352.28 484.99" xmlns="http://www.w3.org/2000/svg" xmlns:xlink="http://www.w3.org/1999/xlink">
<g id="graph0" class="graph" transform="scale(1 1) rotate(0) translate(4 480.99)">
<title>%3</title>
<polygon fill="white" stroke="transparent" points="-4,4 -4,-480.99 348.28,-480.99 348.28,4 -4,4"/>
<!-- 1 -->
<g id="node1" class="node">
<title>1</title>
<ellipse fill="green" stroke="green" cx="148.28" cy="-458.99" rx="18" ry="18"/>
<text text-anchor="middle" x="148.28" y="-455.29" font-family="Times,serif" font-size="14.00" fill="white">1</text>
</g>
<!-- 4 -->
<g id="node3" class="node">
<title>4</title>
<ellipse fill="none" stroke="black" cx="148.28" cy="-371.99" rx="18" ry="18"/>
<text text-anchor="middle" x="148.28" y="-368.29" font-family="Times,serif" font-size="14.00">4</text>
</g>
<!-- 1&#45;&#45;4 -->
<g id="edge1" class="edge">
<title>1&#45;&#45;4</title>
<path fill="none" stroke="black" d="M148.28,-440.79C148.28,-426.04 148.28,-404.91 148.28,-390.17"/>
<text text-anchor="middle" x="153.78" y="-411.79" font-family="Times,serif" font-size="14.00"> 9</text>
</g>
<!-- 2 -->
<g id="node2" class="node">
<title>2</title>
<ellipse fill="none" stroke="black" cx="262.28" cy="-19.5" rx="18" ry="18"/>
<text text-anchor="middle" x="262.28" y="-15.8" font-family="Times,serif" font-size="14.00">2</text>
</g>
<!-- 4&#45;&#45;2 -->
<g id="edge4" class="edge">
<title>4&#45;&#45;2</title>
<path fill="none" stroke="black" d="M165.92,-368.37C184.41,-364.62 212.74,-355.84 227.28,-335.99 262.44,-287.98 263.18,-96.38 262.55,-37.68"/>
<text text-anchor="middle" x="263.78" y="-194.29" font-family="Times,serif" font-size="14.00"> 5</text>
</g>
<!-- 7 -->
<g id="node6" class="node">
<title>7</title>
<ellipse fill="none" stroke="black" cx="195.28" cy="-284.99" rx="18" ry="18"/>
<text text-anchor="middle" x="195.28" y="-281.29" font-family="Times,serif" font-size="14.00">7</text>
</g>
<!-- 4&#45;&#45;7 -->
<g id="edge3" class="edge">
<title>4&#45;&#45;7</title>
<path fill="none" stroke="black" d="M156.68,-355.8C165.23,-340.33 178.42,-316.48 186.95,-301.06"/>
<text text-anchor="middle" x="179.78" y="-324.79" font-family="Times,serif" font-size="14.00"> 1</text>
</g>
<!-- 9 -->
<g id="node8" class="node">
<title>9</title>
<ellipse fill="none" stroke="black" cx="102.28" cy="-284.99" rx="18" ry="18"/>
<text text-anchor="middle" x="102.28" y="-281.29" font-family="Times,serif" font-size="14.00">9</text>
</g>
<!-- 4&#45;&#45;9 -->
<g id="edge5" class="edge">
<title>4&#45;&#45;9</title>
<path fill="none" stroke="black" d="M137.56,-357.5C132.83,-351.18 127.42,-343.43 123.28,-335.99 117.22,-325.14 111.83,-312.19 108.02,-302.18"/>
<text text-anchor="middle" x="128.78" y="-324.79" font-family="Times,serif" font-size="14.00"> 5</text>
</g>
<!-- 5 -->
<g id="node4" class="node">
<title>5</title>
<ellipse fill="none" stroke="black" cx="287.28" cy="-371.99" rx="18" ry="18"/>
<text text-anchor="middle" x="287.28" y="-368.29" font-family="Times,serif" font-size="14.00">5</text>
</g>
<!-- 5&#45;&#45;2 -->
<g id="edge7" class="edge">
<title>5&#45;&#45;2</title>
<path fill="none" stroke="black" d="M299.36,-358.32C312.99,-342.64 333.28,-314.52 333.28,-285.99 333.28,-285.99 333.28,-285.99 333.28,-108.49 333.28,-73.16 298.17,-44.01 277.33,-29.82"/>
<text text-anchor="middle" x="338.78" y="-194.29" font-family="Times,serif" font-size="14.00"> 8</text>
</g>
<!-- 5&#45;&#45;7 -->
<g id="edge8" class="edge">
<title>5&#45;&#45;7</title>
<path fill="none" stroke="black" d="M274.48,-359.17C257,-343.03 225.83,-314.22 208.26,-297.99"/>
<text text-anchor="middle" x="251.78" y="-324.79" font-family="Times,serif" font-size="14.00"> 1</text>
</g>
<!-- 8 -->
<g id="node7" class="node">
<title>8</title>
<ellipse fill="none" stroke="black" cx="208.28" cy="-197.99" rx="18" ry="18"/>
<text text-anchor="middle" x="208.28" y="-194.29" font-family="Times,serif" font-size="14.00">8</text>
</g>
<!-- 5&#45;&#45;8 -->
<g id="edge6" class="edge">
<title>5&#45;&#45;8</title>
<path fill="none" stroke="black" d="M280.13,-355.43C265.16,-322.84 230.68,-247.77 215.58,-214.9"/>
<text text-anchor="middle" x="264.28" y="-281.29" font-family="Times,serif" font-size="14.00"> 11</text>
</g>
<!-- 6 -->
<g id="node5" class="node">
<title>6</title>
<ellipse fill="red" stroke="red" cx="44.28" cy="-197.99" rx="18" ry="18"/>
<text text-anchor="middle" x="44.28" y="-194.29" font-family="Times,serif" font-size="14.00" fill="white">6</text>
</g>
<!-- 12 -->
<g id="node11" class="node">
<title>12</title>
<ellipse fill="none" stroke="black" cx="44.28" cy="-109.49" rx="19.5" ry="19.5"/>
<text text-anchor="middle" x="44.28" y="-105.79" font-family="Times,serif" font-size="14.00">12</text>
</g>
<!-- 6&#45;&#45;12 -->
<g id="edge11" class="edge">
<title>6&#45;&#45;12</title>
<path fill="none" stroke="black" d="M44.28,-179.9C44.28,-165.23 44.28,-144.13 44.28,-129.05"/>
<text text-anchor="middle" x="49.78" y="-150.79" font-family="Times,serif" font-size="14.00"> 2</text>
</g>
<!-- 13 -->
<g id="node12" class="node">
<title>13</title>
<ellipse fill="yellow" stroke="yellow" cx="101.28" cy="-109.49" rx="19.5" ry="19.5"/>
<text text-anchor="middle" x="101.28" y="-105.79" font-family="Times,serif" font-size="14.00">13</text>
</g>
<!-- 6&#45;&#45;13 -->
<g id="edge12" class="edge">
<title>6&#45;&#45;13</title>
<path fill="none" stroke="black" d="M53.94,-182.32C64.24,-166.7 80.46,-142.09 90.98,-126.12"/>
<text text-anchor="middle" x="80.78" y="-150.79" font-family="Times,serif" font-size="14.00"> 2</text>
</g>
<!-- 15 -->
<g id="node14" class="node">
<title>15</title>
<ellipse fill="none" stroke="black" cx="101.28" cy="-19.5" rx="19.5" ry="19.5"/>
<text text-anchor="middle" x="101.28" y="-15.8" font-family="Times,serif" font-size="14.00">15</text>
</g>
<!-- 6&#45;&#45;15 -->
<g id="edge9" class="edge">
<title>6&#45;&#45;15</title>
<path fill="none" stroke="black" d="M32.83,-184.05C16.12,-163.5 -11.27,-122.4 5.28,-90 21.56,-58.11 60.05,-37.46 83.05,-27.51"/>
<text text-anchor="middle" x="10.78" y="-105.79" font-family="Times,serif" font-size="14.00"> 2</text>
</g>
<!-- 7&#45;&#45;8 -->
<g id="edge13" class="edge">
<title>7&#45;&#45;8</title>
<path fill="none" stroke="black" d="M197.91,-266.79C200.18,-251.95 203.44,-230.63 205.69,-215.88"/>
<text text-anchor="middle" x="207.78" y="-237.79" font-family="Times,serif" font-size="14.00"> 1</text>
</g>
<!-- 10 -->
<g id="node9" class="node">
<title>10</title>
<ellipse fill="none" stroke="black" cx="215.28" cy="-109.49" rx="19.5" ry="19.5"/>
<text text-anchor="middle" x="215.28" y="-105.79" font-family="Times,serif" font-size="14.00">10</text>
</g>
<!-- 8&#45;&#45;10 -->
<g id="edge2" class="edge">
<title>8&#45;&#45;10</title>
<path fill="none" stroke="black" d="M209.66,-179.9C210.85,-165.23 212.55,-144.13 213.77,-129.05"/>
<text text-anchor="middle" x="216.78" y="-150.79" font-family="Times,serif" font-size="14.00"> 5</text>
</g>
<!-- 11 -->
<g id="node10" class="node">
<title>11</title>
<ellipse fill="blue" stroke="blue" cx="158.28" cy="-109.49" rx="19.5" ry="19.5"/>
<text text-anchor="middle" x="158.28" y="-105.79" font-family="Times,serif" font-size="14.00" fill="white">11</text>
</g>
<!-- 8&#45;&#45;11 -->
<g id="edge14" class="edge">
<title>8&#45;&#45;11</title>
<path fill="none" stroke="black" d="M199.57,-181.93C190.67,-166.53 176.9,-142.71 167.73,-126.86"/>
<text text-anchor="middle" x="192.78" y="-150.79" font-family="Times,serif" font-size="14.00"> 1</text>
</g>
<!-- 9&#45;&#45;6 -->
<g id="edge10" class="edge">
<title>9&#45;&#45;6</title>
<path fill="none" stroke="black" d="M92.44,-269.57C81.71,-253.85 64.64,-228.84 53.97,-213.2"/>
<text text-anchor="middle" x="81.78" y="-237.79" font-family="Times,serif" font-size="14.00"> 1</text>
</g>
<!-- 11&#45;&#45;2 -->
<g id="edge15" class="edge">
<title>11&#45;&#45;2</title>
<path fill="none" stroke="black" d="M172.74,-96.26C192.94,-79.16 229.33,-48.37 248.93,-31.79"/>
<text text-anchor="middle" x="221.78" y="-60.8" font-family="Times,serif" font-size="14.00"> 7</text>
</g>
<!-- 11&#45;&#45;4 -->
<g id="edge16" class="edge">
<title>11&#45;&#45;4</title>
<path fill="none" stroke="black" d="M157.56,-129.03C155.71,-177.45 150.73,-307.15 148.93,-353.9"/>
<text text-anchor="middle" x="158.78" y="-237.79" font-family="Times,serif" font-size="14.00"> 7</text>
</g>
<!-- 14 -->
<g id="node13" class="node">
<title>14</title>
<ellipse fill="none" stroke="black" cx="158.28" cy="-19.5" rx="19.5" ry="19.5"/>
<text text-anchor="middle" x="158.28" y="-15.8" font-family="Times,serif" font-size="14.00">14</text>
</g>
<!-- 11&#45;&#45;14 -->
<g id="edge17" class="edge">
<title>11&#45;&#45;14</title>
<path fill="none" stroke="black" d="M158.28,-89.83C158.28,-74.9 158.28,-54.06 158.28,-39.13"/>
<text text-anchor="middle" x="163.78" y="-60.8" font-family="Times,serif" font-size="14.00"> 8</text>
</g>
<!-- 13&#45;&#45;15 -->
<g id="edge18" class="edge">
<title>13&#45;&#45;15</title>
<path fill="none" stroke="black" d="M101.28,-89.83C101.28,-74.9 101.28,-54.06 101.28,-39.13"/>
<text text-anchor="middle" x="106.78" y="-60.8" font-family="Times,serif" font-size="14.00"> 4</text>
</g>
</g>
</svg>
