<?xml version="1.0" encoding="UTF-8" standalone="no"?>
<!DOCTYPE svg PUBLIC "-//W3C//DTD SVG 1.1//EN"
 "http://www.w3.org/Graphics/SVG/1.1/DTD/svg11.dtd">
<!-- Generated by graphviz version 2.43.0 (0)
 -->
<!-- Title: %3 Pages: 1 -->
<svg width="261pt" height="488pt"
 viewBox="0.00 0.00 261.50 487.99" xmlns="http://www.w3.org/2000/svg" xmlns:xlink="http://www.w3.org/1999/xlink">
<g id="graph0" class="graph" transform="scale(1 1) rotate(0) translate(4 483.99)">
<title>%3</title>
<polygon fill="white" stroke="transparent" points="-4,4 -4,-483.99 257.5,-483.99 257.5,4 -4,4"/>
<!-- 1 -->
<g id="node1" class="node">
<title>1</title>
<ellipse fill="none" stroke="black" cx="114.5" cy="-373.49" rx="18" ry="18"/>
<text text-anchor="middle" x="114.5" y="-369.79" font-family="Times,serif" font-size="14.00">1</text>
</g>
<!-- 4 -->
<g id="node3" class="node">
<title>4</title>
<ellipse fill="none" stroke="black" cx="114.5" cy="-284.99" rx="18" ry="18"/>
<text text-anchor="middle" x="114.5" y="-281.29" font-family="Times,serif" font-size="14.00">4</text>
</g>
<!-- 1&#45;&#45;4 -->
<g id="edge1" class="edge">
<title>1&#45;&#45;4</title>
<path fill="none" stroke="black" d="M114.5,-355.4C114.5,-340.24 114.5,-318.2 114.5,-303.05"/>
<text text-anchor="middle" x="120" y="-324.79" font-family="Times,serif" font-size="14.00"> 9</text>
</g>
<!-- 2 -->
<g id="node2" class="node">
<title>2</title>
<ellipse fill="red" stroke="red" cx="19.5" cy="-197.99" rx="18" ry="18"/>
<text text-anchor="middle" x="19.5" y="-194.29" font-family="Times,serif" font-size="14.00" fill="white">2</text>
</g>
<!-- 10 -->
<g id="node9" class="node">
<title>10</title>
<ellipse fill="none" stroke="black" cx="19.5" cy="-109.49" rx="19.5" ry="19.5"/>
<text text-anchor="middle" x="19.5" y="-105.79" font-family="Times,serif" font-size="14.00">10</text>
</g>
<!-- 2&#45;&#45;10 -->
<g id="edge2" class="edge">
<title>2&#45;&#45;10</title>
<path fill="none" stroke="black" d="M19.5,-179.9C19.5,-165.23 19.5,-144.13 19.5,-129.05"/>
<text text-anchor="middle" x="25" y="-150.79" font-family="Times,serif" font-size="14.00"> 5</text>
</g>
<!-- 4&#45;&#45;2 -->
<g id="edge4" class="edge">
<title>4&#45;&#45;2</title>
<path fill="none" stroke="black" d="M104.76,-269.35C97.27,-258.77 86.25,-244.54 74.5,-233.99 73.62,-233.2 50.48,-218.55 34.5,-208.46"/>
<text text-anchor="middle" x="94" y="-237.79" font-family="Times,serif" font-size="14.00"> 5</text>
</g>
<!-- 9 -->
<g id="node8" class="node">
<title>9</title>
<ellipse fill="none" stroke="black" cx="181.5" cy="-197.99" rx="18" ry="18"/>
<text text-anchor="middle" x="181.5" y="-194.29" font-family="Times,serif" font-size="14.00">9</text>
</g>
<!-- 4&#45;&#45;9 -->
<g id="edge5" class="edge">
<title>4&#45;&#45;9</title>
<path fill="none" stroke="black" d="M117.49,-266.98C119.94,-256.66 124.23,-243.67 131.5,-233.99 134.04,-230.6 152.94,-217.78 166.75,-208.64"/>
<text text-anchor="middle" x="137" y="-237.79" font-family="Times,serif" font-size="14.00"> 5</text>
</g>
<!-- 3 -->
<g id="node15" class="node">
<title>3</title>
<ellipse fill="none" stroke="black" cx="235.5" cy="-197.99" rx="18" ry="18"/>
<text text-anchor="middle" x="235.5" y="-194.29" font-family="Times,serif" font-size="14.00">3</text>
</g>
<!-- 4&#45;&#45;3 -->
<g id="edge3" class="edge">
<title>4&#45;&#45;3</title>
<path fill="none" stroke="black" d="M125.52,-270.67C135.16,-259.68 150,-244.28 165.5,-233.99 182.76,-222.54 190.11,-225.55 208.5,-215.99 212.63,-213.85 216.95,-211.28 220.9,-208.8"/>
<text text-anchor="middle" x="171" y="-237.79" font-family="Times,serif" font-size="14.00"> 1</text>
</g>
<!-- 5 -->
<g id="node4" class="node">
<title>5</title>
<ellipse fill="green" stroke="green" cx="114.5" cy="-461.99" rx="18" ry="18"/>
<text text-anchor="middle" x="114.5" y="-458.29" font-family="Times,serif" font-size="14.00" fill="white">5</text>
</g>
<!-- 5&#45;&#45;1 -->
<g id="edge6" class="edge">
<title>5&#45;&#45;1</title>
<path fill="none" stroke="black" d="M114.5,-443.9C114.5,-428.74 114.5,-406.7 114.5,-391.55"/>
<text text-anchor="middle" x="123.5" y="-414.79" font-family="Times,serif" font-size="14.00"> 11</text>
</g>
<!-- 5&#45;&#45;2 -->
<g id="edge7" class="edge">
<title>5&#45;&#45;2</title>
<path fill="none" stroke="black" d="M107.99,-445.12C102.4,-431.39 94.21,-410.96 87.5,-392.99 63.02,-327.46 36.16,-248.56 24.92,-215.17"/>
<text text-anchor="middle" x="73" y="-324.79" font-family="Times,serif" font-size="14.00"> 8</text>
</g>
<!-- 7 -->
<g id="node6" class="node">
<title>7</title>
<ellipse fill="none" stroke="black" cx="224.5" cy="-373.49" rx="18" ry="18"/>
<text text-anchor="middle" x="224.5" y="-369.79" font-family="Times,serif" font-size="14.00">7</text>
</g>
<!-- 5&#45;&#45;7 -->
<g id="edge8" class="edge">
<title>5&#45;&#45;7</title>
<path fill="none" stroke="black" d="M128.43,-450.03C149.59,-433.4 189.59,-401.94 210.68,-385.36"/>
<text text-anchor="middle" x="181" y="-414.79" font-family="Times,serif" font-size="14.00"> 1</text>
</g>
<!-- 6 -->
<g id="node5" class="node">
<title>6</title>
<ellipse fill="none" stroke="black" cx="127.5" cy="-197.99" rx="18" ry="18"/>
<text text-anchor="middle" x="127.5" y="-194.29" font-family="Times,serif" font-size="14.00">6</text>
</g>
<!-- 12 -->
<g id="node11" class="node">
<title>12</title>
<ellipse fill="none" stroke="black" cx="99.5" cy="-109.49" rx="19.5" ry="19.5"/>
<text text-anchor="middle" x="99.5" y="-105.79" font-family="Times,serif" font-size="14.00">12</text>
</g>
<!-- 6&#45;&#45;12 -->
<g id="edge9" class="edge">
<title>6&#45;&#45;12</title>
<path fill="none" stroke="black" d="M120.24,-181.52C117.59,-175.5 114.7,-168.51 112.5,-161.99 108.84,-151.16 105.67,-138.74 103.38,-128.81"/>
<text text-anchor="middle" x="118" y="-150.79" font-family="Times,serif" font-size="14.00"> 2</text>
</g>
<!-- 13 -->
<g id="node12" class="node">
<title>13</title>
<ellipse fill="none" stroke="black" cx="156.5" cy="-109.49" rx="19.5" ry="19.5"/>
<text text-anchor="middle" x="156.5" y="-105.79" font-family="Times,serif" font-size="14.00">13</text>
</g>
<!-- 6&#45;&#45;13 -->
<g id="edge11" class="edge">
<title>6&#45;&#45;13</title>
<path fill="none" stroke="black" d="M132.95,-180.72C137.97,-165.75 145.4,-143.59 150.57,-128.18"/>
<text text-anchor="middle" x="150" y="-150.79" font-family="Times,serif" font-size="14.00"> 2</text>
</g>
<!-- 8 -->
<g id="node7" class="node">
<title>8</title>
<ellipse fill="blue" stroke="blue" cx="73.5" cy="-197.99" rx="18" ry="18"/>
<text text-anchor="middle" x="73.5" y="-194.29" font-family="Times,serif" font-size="14.00" fill="white">8</text>
</g>
<!-- 8&#45;&#45;12 -->
<g id="edge12" class="edge">
<title>8&#45;&#45;12</title>
<path fill="none" stroke="black" d="M72.94,-179.95C73.09,-170.1 74.09,-157.6 77.5,-146.99 79.9,-139.53 84.08,-131.99 88.16,-125.71"/>
<text text-anchor="middle" x="83" y="-150.79" font-family="Times,serif" font-size="14.00"> 1</text>
</g>
<!-- 9&#45;&#45;13 -->
<g id="edge10" class="edge">
<title>9&#45;&#45;13</title>
<path fill="none" stroke="black" d="M176.68,-180.32C172.36,-165.39 166.06,-143.58 161.65,-128.31"/>
<text text-anchor="middle" x="176" y="-150.79" font-family="Times,serif" font-size="14.00"> 1</text>
</g>
<!-- 11 -->
<g id="node10" class="node">
<title>11</title>
<ellipse fill="none" stroke="black" cx="169.5" cy="-373.49" rx="19.5" ry="19.5"/>
<text text-anchor="middle" x="169.5" y="-369.79" font-family="Times,serif" font-size="14.00">11</text>
</g>
<!-- 11&#45;&#45;4 -->
<g id="edge14" class="edge">
<title>11&#45;&#45;4</title>
<path fill="none" stroke="black" d="M159.41,-356.63C149.24,-340.63 133.67,-316.14 123.79,-300.61"/>
<text text-anchor="middle" x="151" y="-324.79" font-family="Times,serif" font-size="14.00"> 7</text>
</g>
<!-- 11&#45;&#45;3 -->
<g id="edge13" class="edge">
<title>11&#45;&#45;3</title>
<path fill="none" stroke="black" d="M176.19,-354.9C189.04,-321.13 216.98,-247.68 229.37,-215.11"/>
<text text-anchor="middle" x="214" y="-281.29" font-family="Times,serif" font-size="14.00"> 7</text>
</g>
<!-- 14 -->
<g id="node13" class="node">
<title>14</title>
<ellipse fill="none" stroke="black" cx="99.5" cy="-19.5" rx="19.5" ry="19.5"/>
<text text-anchor="middle" x="99.5" y="-15.8" font-family="Times,serif" font-size="14.00">14</text>
</g>
<!-- 12&#45;&#45;14 -->
<g id="edge15" class="edge">
<title>12&#45;&#45;14</title>
<path fill="none" stroke="black" d="M99.5,-89.83C99.5,-74.9 99.5,-54.06 99.5,-39.13"/>
<text text-anchor="middle" x="105" y="-60.8" font-family="Times,serif" font-size="14.00"> 8</text>
</g>
<!-- 15 -->
<g id="node14" class="node">
<title>15</title>
<ellipse fill="yellow" stroke="yellow" cx="156.5" cy="-19.5" rx="19.5" ry="19.5"/>
<text text-anchor="middle" x="156.5" y="-15.8" font-family="Times,serif" font-size="14.00">15</text>
</g>
<!-- 13&#45;&#45;15 -->
<g id="edge16" class="edge">
<title>13&#45;&#45;15</title>
<path fill="none" stroke="black" d="M156.5,-89.83C156.5,-74.9 156.5,-54.06 156.5,-39.13"/>
<text text-anchor="middle" x="162" y="-60.8" font-family="Times,serif" font-size="14.00"> 4</text>
</g>
</g>
</svg>
