<?xml version="1.0" encoding="UTF-8" standalone="no"?>
<!DOCTYPE svg PUBLIC "-//W3C//DTD SVG 1.1//EN"
 "http://www.w3.org/Graphics/SVG/1.1/DTD/svg11.dtd">
<!-- Generated by graphviz version 2.43.0 (0)
 -->
<!-- Title: %3 Pages: 1 -->
<svg width="313pt" height="581pt"
 viewBox="0.00 0.00 313.50 580.98" xmlns="http://www.w3.org/2000/svg" xmlns:xlink="http://www.w3.org/1999/xlink">
<g id="graph0" class="graph" transform="scale(1 1) rotate(0) translate(4 576.98)">
<title>%3</title>
<polygon fill="white" stroke="transparent" points="-4,4 -4,-576.98 309.5,-576.98 309.5,4 -4,4"/>
<!-- 1 -->
<g id="node1" class="node">
<title>1</title>
<ellipse fill="red" stroke="red" cx="126" cy="-554.98" rx="18" ry="18"/>
<text text-anchor="middle" x="126" y="-551.28" font-family="Times,serif" font-size="14.00" fill="white">1</text>
</g>
<!-- 10 -->
<g id="node10" class="node">
<title>10</title>
<ellipse fill="yellow" stroke="yellow" cx="126" cy="-466.48" rx="19.5" ry="19.5"/>
<text text-anchor="middle" x="126" y="-462.78" font-family="Times,serif" font-size="14.00">10</text>
</g>
<!-- 1&#45;&gt;10 -->
<g id="edge2" class="edge">
<title>1&#45;&gt;10</title>
<path fill="none" stroke="black" d="M126,-536.89C126,-525.32 126,-509.73 126,-496.27"/>
<polygon fill="black" stroke="black" points="129.5,-496.04 126,-486.04 122.5,-496.04 129.5,-496.04"/>
<text text-anchor="middle" x="131.5" y="-507.78" font-family="Times,serif" font-size="14.00"> 5</text>
</g>
<!-- 2 -->
<g id="node2" class="node">
<title>2</title>
<ellipse fill="none" stroke="black" cx="126" cy="-287.99" rx="18" ry="18"/>
<text text-anchor="middle" x="126" y="-284.29" font-family="Times,serif" font-size="14.00">2</text>
</g>
<!-- 3 -->
<g id="node3" class="node">
<title>3</title>
<ellipse fill="green" stroke="green" cx="180" cy="-199.49" rx="18" ry="18"/>
<text text-anchor="middle" x="180" y="-195.79" font-family="Times,serif" font-size="14.00" fill="white">3</text>
</g>
<!-- 2&#45;&gt;3 -->
<g id="edge3" class="edge">
<title>2&#45;&gt;3</title>
<path fill="none" stroke="black" d="M134.34,-271.94C139.99,-261.92 147.72,-248.53 155,-236.99 157.9,-232.4 161.1,-227.56 164.22,-222.96"/>
<polygon fill="black" stroke="black" points="167.23,-224.76 170.01,-214.54 161.46,-220.8 167.23,-224.76"/>
<text text-anchor="middle" x="160.5" y="-240.79" font-family="Times,serif" font-size="14.00"> 1</text>
</g>
<!-- 15 -->
<g id="node15" class="node">
<title>15</title>
<ellipse fill="none" stroke="black" cx="239" cy="-19.5" rx="19.5" ry="19.5"/>
<text text-anchor="middle" x="239" y="-15.8" font-family="Times,serif" font-size="14.00">15</text>
</g>
<!-- 3&#45;&gt;15 -->
<g id="edge4" class="edge">
<title>3&#45;&gt;15</title>
<path fill="none" stroke="black" d="M184.88,-181.81C192.75,-155.21 209,-101.65 225,-57 226.12,-53.87 227.33,-50.6 228.54,-47.36"/>
<polygon fill="black" stroke="black" points="231.86,-48.48 232.15,-37.89 225.32,-45.99 231.86,-48.48"/>
<text text-anchor="middle" x="218.5" y="-105.79" font-family="Times,serif" font-size="14.00"> 2</text>
</g>
<!-- 4 -->
<g id="node4" class="node">
<title>4</title>
<ellipse fill="blue" stroke="blue" cx="239" cy="-287.99" rx="18" ry="18"/>
<text text-anchor="middle" x="239" y="-284.29" font-family="Times,serif" font-size="14.00" fill="white">4</text>
</g>
<!-- 4&#45;&gt;3 -->
<g id="edge5" class="edge">
<title>4&#45;&gt;3</title>
<path fill="none" stroke="black" d="M228.66,-272.77C224.11,-266.44 218.74,-258.88 214,-251.99 207.63,-242.72 200.77,-232.39 194.88,-223.43"/>
<polygon fill="black" stroke="black" points="197.79,-221.47 189.39,-215.01 191.93,-225.3 197.79,-221.47"/>
<text text-anchor="middle" x="219.5" y="-240.79" font-family="Times,serif" font-size="14.00"> 5</text>
</g>
<!-- 9 -->
<g id="node9" class="node">
<title>9</title>
<ellipse fill="none" stroke="black" cx="285" cy="-199.49" rx="18" ry="18"/>
<text text-anchor="middle" x="285" y="-195.79" font-family="Times,serif" font-size="14.00">9</text>
</g>
<!-- 4&#45;&gt;9 -->
<g id="edge6" class="edge">
<title>4&#45;&gt;9</title>
<path fill="none" stroke="black" d="M247.22,-271.53C254.09,-258.61 264.01,-239.96 271.96,-225.01"/>
<polygon fill="black" stroke="black" points="275.24,-226.29 276.85,-215.82 269.06,-223.01 275.24,-226.29"/>
<text text-anchor="middle" x="269.5" y="-240.79" font-family="Times,serif" font-size="14.00"> 5</text>
</g>
<!-- 4&#45;&gt;15 -->
<g id="edge7" class="edge">
<title>4&#45;&gt;15</title>
<path fill="none" stroke="black" d="M239,-269.91C239,-225.33 239,-105.01 239,-49.4"/>
<polygon fill="black" stroke="black" points="242.5,-49.19 239,-39.19 235.5,-49.19 242.5,-49.19"/>
<text text-anchor="middle" x="248" y="-150.79" font-family="Times,serif" font-size="14.00"> 11</text>
</g>
<!-- 5 -->
<g id="node5" class="node">
<title>5</title>
<ellipse fill="none" stroke="black" cx="126" cy="-376.49" rx="18" ry="18"/>
<text text-anchor="middle" x="126" y="-372.79" font-family="Times,serif" font-size="14.00">5</text>
</g>
<!-- 5&#45;&gt;2 -->
<g id="edge8" class="edge">
<title>5&#45;&gt;2</title>
<path fill="none" stroke="black" d="M126,-358.4C126,-346.43 126,-330.19 126,-316.42"/>
<polygon fill="black" stroke="black" points="129.5,-316.04 126,-306.04 122.5,-316.04 129.5,-316.04"/>
<text text-anchor="middle" x="131.5" y="-327.79" font-family="Times,serif" font-size="14.00"> 8</text>
</g>
<!-- 8 -->
<g id="node8" class="node">
<title>8</title>
<ellipse fill="none" stroke="black" cx="18" cy="-287.99" rx="18" ry="18"/>
<text text-anchor="middle" x="18" y="-284.29" font-family="Times,serif" font-size="14.00">8</text>
</g>
<!-- 5&#45;&gt;8 -->
<g id="edge9" class="edge">
<title>5&#45;&gt;8</title>
<path fill="none" stroke="black" d="M112.32,-364.53C93.98,-349.84 61.23,-323.61 39.55,-306.25"/>
<polygon fill="black" stroke="black" points="41.56,-303.38 31.57,-299.86 37.18,-308.84 41.56,-303.38"/>
<text text-anchor="middle" x="84.5" y="-327.79" font-family="Times,serif" font-size="14.00"> 1</text>
</g>
<!-- 6 -->
<g id="node6" class="node">
<title>6</title>
<ellipse fill="none" stroke="black" cx="72" cy="-287.99" rx="18" ry="18"/>
<text text-anchor="middle" x="72" y="-284.29" font-family="Times,serif" font-size="14.00">6</text>
</g>
<!-- 6&#45;&gt;3 -->
<g id="edge12" class="edge">
<title>6&#45;&gt;3</title>
<path fill="none" stroke="black" d="M85.39,-275.23C97.22,-264.93 115.02,-249.69 131,-236.99 139.5,-230.23 149.05,-223.04 157.44,-216.84"/>
<polygon fill="black" stroke="black" points="159.68,-219.54 165.67,-210.8 155.54,-213.89 159.68,-219.54"/>
<text text-anchor="middle" x="136.5" y="-240.79" font-family="Times,serif" font-size="14.00"> 2</text>
</g>
<!-- 12 -->
<g id="node12" class="node">
<title>12</title>
<ellipse fill="none" stroke="black" cx="72" cy="-199.49" rx="19.5" ry="19.5"/>
<text text-anchor="middle" x="72" y="-195.79" font-family="Times,serif" font-size="14.00">12</text>
</g>
<!-- 6&#45;&gt;12 -->
<g id="edge10" class="edge">
<title>6&#45;&gt;12</title>
<path fill="none" stroke="black" d="M72,-269.9C72,-258.32 72,-242.74 72,-229.27"/>
<polygon fill="black" stroke="black" points="75.5,-229.04 72,-219.04 68.5,-229.04 75.5,-229.04"/>
<text text-anchor="middle" x="77.5" y="-240.79" font-family="Times,serif" font-size="14.00"> 2</text>
</g>
<!-- 7 -->
<g id="node7" class="node">
<title>7</title>
<ellipse fill="none" stroke="black" cx="181" cy="-466.48" rx="18" ry="18"/>
<text text-anchor="middle" x="181" y="-462.78" font-family="Times,serif" font-size="14.00">7</text>
</g>
<!-- 7&#45;&gt;5 -->
<g id="edge13" class="edge">
<title>7&#45;&gt;5</title>
<path fill="none" stroke="black" d="M171.67,-450.56C163.16,-436.95 150.46,-416.62 140.61,-400.86"/>
<polygon fill="black" stroke="black" points="143.46,-398.82 135.19,-392.19 137.52,-402.53 143.46,-398.82"/>
<text text-anchor="middle" x="162.5" y="-417.79" font-family="Times,serif" font-size="14.00"> 1</text>
</g>
<!-- 8&#45;&gt;12 -->
<g id="edge14" class="edge">
<title>8&#45;&gt;12</title>
<path fill="none" stroke="black" d="M27.16,-272.32C35.18,-259.46 47.01,-240.52 56.51,-225.31"/>
<polygon fill="black" stroke="black" points="59.73,-226.75 62.06,-216.41 53.8,-223.04 59.73,-226.75"/>
<text text-anchor="middle" x="54.5" y="-240.79" font-family="Times,serif" font-size="14.00"> 1</text>
</g>
<!-- 13 -->
<g id="node13" class="node">
<title>13</title>
<ellipse fill="none" stroke="black" cx="286" cy="-109.49" rx="19.5" ry="19.5"/>
<text text-anchor="middle" x="286" y="-105.79" font-family="Times,serif" font-size="14.00">13</text>
</g>
<!-- 9&#45;&gt;13 -->
<g id="edge11" class="edge">
<title>9&#45;&gt;13</title>
<path fill="none" stroke="black" d="M285.2,-181.11C285.33,-169.13 285.52,-152.95 285.68,-139.09"/>
<polygon fill="black" stroke="black" points="289.18,-139.1 285.79,-129.06 282.18,-139.02 289.18,-139.1"/>
<text text-anchor="middle" x="290.5" y="-150.79" font-family="Times,serif" font-size="14.00"> 1</text>
</g>
<!-- 10&#45;&gt;5 -->
<g id="edge1" class="edge">
<title>10&#45;&gt;5</title>
<path fill="none" stroke="black" d="M126,-446.82C126,-434.64 126,-418.53 126,-404.9"/>
<polygon fill="black" stroke="black" points="129.5,-404.63 126,-394.63 122.5,-404.63 129.5,-404.63"/>
<text text-anchor="middle" x="131.5" y="-417.79" font-family="Times,serif" font-size="14.00"> 9</text>
</g>
<!-- 11 -->
<g id="node11" class="node">
<title>11</title>
<ellipse fill="none" stroke="black" cx="203" cy="-376.49" rx="19.5" ry="19.5"/>
<text text-anchor="middle" x="203" y="-372.79" font-family="Times,serif" font-size="14.00">11</text>
</g>
<!-- 11&#45;&gt;3 -->
<g id="edge15" class="edge">
<title>11&#45;&gt;3</title>
<path fill="none" stroke="black" d="M200.58,-357.09C196.53,-326.23 188.33,-263.9 183.6,-227.88"/>
<polygon fill="black" stroke="black" points="187.02,-227.07 182.25,-217.61 180.08,-227.98 187.02,-227.07"/>
<text text-anchor="middle" x="199.5" y="-284.29" font-family="Times,serif" font-size="14.00"> 7</text>
</g>
<!-- 11&#45;&gt;4 -->
<g id="edge16" class="edge">
<title>11&#45;&gt;4</title>
<path fill="none" stroke="black" d="M210.29,-357.98C215.48,-345.51 222.54,-328.55 228.36,-314.56"/>
<polygon fill="black" stroke="black" points="231.72,-315.59 232.33,-305.01 225.26,-312.9 231.72,-315.59"/>
<text text-anchor="middle" x="229.5" y="-327.79" font-family="Times,serif" font-size="14.00"> 7</text>
</g>
<!-- 14 -->
<g id="node14" class="node">
<title>14</title>
<ellipse fill="none" stroke="black" cx="72" cy="-109.49" rx="19.5" ry="19.5"/>
<text text-anchor="middle" x="72" y="-105.79" font-family="Times,serif" font-size="14.00">14</text>
</g>
<!-- 12&#45;&gt;14 -->
<g id="edge17" class="edge">
<title>12&#45;&gt;14</title>
<path fill="none" stroke="black" d="M72,-179.83C72,-168.05 72,-152.59 72,-139.25"/>
<polygon fill="black" stroke="black" points="75.5,-139.13 72,-129.13 68.5,-139.13 75.5,-139.13"/>
<text text-anchor="middle" x="77.5" y="-150.79" font-family="Times,serif" font-size="14.00"> 8</text>
</g>
<!-- 13&#45;&gt;15 -->
<g id="edge18" class="edge">
<title>13&#45;&gt;15</title>
<path fill="none" stroke="black" d="M277.16,-91.94C270.27,-79.04 260.57,-60.89 252.68,-46.11"/>
<polygon fill="black" stroke="black" points="255.6,-44.15 247.8,-36.98 249.42,-47.45 255.6,-44.15"/>
<text text-anchor="middle" x="270.5" y="-60.8" font-family="Times,serif" font-size="14.00"> 4</text>
</g>
</g>
</svg>
