<?xml version="1.0" encoding="UTF-8" standalone="no"?>
<!DOCTYPE svg PUBLIC "-//W3C//DTD SVG 1.1//EN"
 "http://www.w3.org/Graphics/SVG/1.1/DTD/svg11.dtd">
<!-- Generated by graphviz version 2.43.0 (0)
 -->
<!-- Title: %3 Pages: 1 -->
<svg width="276pt" height="671pt"
 viewBox="0.00 0.00 276.24 670.98" xmlns="http://www.w3.org/2000/svg" xmlns:xlink="http://www.w3.org/1999/xlink">
<g id="graph0" class="graph" transform="scale(1 1) rotate(0) translate(4 666.98)">
<title>%3</title>
<polygon fill="white" stroke="transparent" points="-4,4 -4,-666.98 272.24,-666.98 272.24,4 -4,4"/>
<!-- 1 -->
<g id="node1" class="node">
<title>1</title>
<ellipse fill="none" stroke="black" cx="90.24" cy="-644.98" rx="18" ry="18"/>
<text text-anchor="middle" x="90.24" y="-641.28" font-family="Times,serif" font-size="14.00">1</text>
</g>
<!-- 7 -->
<g id="node7" class="node">
<title>7</title>
<ellipse fill="none" stroke="black" cx="90.24" cy="-557.98" rx="18" ry="18"/>
<text text-anchor="middle" x="90.24" y="-554.28" font-family="Times,serif" font-size="14.00">7</text>
</g>
<!-- 1&#45;&gt;7 -->
<g id="edge1" class="edge">
<title>1&#45;&gt;7</title>
<path fill="none" stroke="black" d="M90.24,-626.78C90.24,-615.14 90.24,-599.53 90.24,-586.22"/>
<polygon fill="black" stroke="black" points="93.74,-586.15 90.24,-576.15 86.74,-586.15 93.74,-586.15"/>
<text text-anchor="middle" x="95.74" y="-597.78" font-family="Times,serif" font-size="14.00"> 9</text>
</g>
<!-- 2 -->
<g id="node2" class="node">
<title>2</title>
<ellipse fill="none" stroke="black" cx="90.24" cy="-379.48" rx="18" ry="18"/>
<text text-anchor="middle" x="90.24" y="-375.78" font-family="Times,serif" font-size="14.00">2</text>
</g>
<!-- 3 -->
<g id="node3" class="node">
<title>3</title>
<ellipse fill="none" stroke="black" cx="204.24" cy="-199.49" rx="18" ry="18"/>
<text text-anchor="middle" x="204.24" y="-195.79" font-family="Times,serif" font-size="14.00">3</text>
</g>
<!-- 15 -->
<g id="node15" class="node">
<title>15</title>
<ellipse fill="none" stroke="black" cx="145.24" cy="-19.5" rx="19.5" ry="19.5"/>
<text text-anchor="middle" x="145.24" y="-15.8" font-family="Times,serif" font-size="14.00">15</text>
</g>
<!-- 3&#45;&gt;15 -->
<g id="edge5" class="edge">
<title>3&#45;&gt;15</title>
<path fill="none" stroke="black" d="M199.29,-181.83C191.31,-155.27 174.93,-101.76 159.24,-57 158.14,-53.86 156.95,-50.58 155.74,-47.34"/>
<polygon fill="black" stroke="black" points="158.97,-45.98 152.14,-37.87 152.42,-48.46 158.97,-45.98"/>
<text text-anchor="middle" x="187.74" y="-105.79" font-family="Times,serif" font-size="14.00"> 2</text>
</g>
<!-- 4 -->
<g id="node4" class="node">
<title>4</title>
<ellipse fill="none" stroke="black" cx="145.24" cy="-289.49" rx="18" ry="18"/>
<text text-anchor="middle" x="145.24" y="-285.79" font-family="Times,serif" font-size="14.00">4</text>
</g>
<!-- 4&#45;&gt;3 -->
<g id="edge6" class="edge">
<title>4&#45;&gt;3</title>
<path fill="none" stroke="black" d="M154.7,-274.02C161.49,-263.67 170.87,-249.44 179.24,-236.99 182.27,-232.48 185.53,-227.68 188.67,-223.1"/>
<polygon fill="black" stroke="black" points="191.68,-224.89 194.45,-214.67 185.91,-220.93 191.68,-224.89"/>
<text text-anchor="middle" x="184.74" y="-240.79" font-family="Times,serif" font-size="14.00"> 5</text>
</g>
<!-- 9 -->
<g id="node9" class="node">
<title>9</title>
<ellipse fill="none" stroke="black" cx="99.24" cy="-199.49" rx="18" ry="18"/>
<text text-anchor="middle" x="99.24" y="-195.79" font-family="Times,serif" font-size="14.00">9</text>
</g>
<!-- 4&#45;&gt;9 -->
<g id="edge7" class="edge">
<title>4&#45;&gt;9</title>
<path fill="none" stroke="black" d="M134.78,-274.72C129.99,-268.06 124.46,-259.83 120.24,-251.99 115.83,-243.8 111.77,-234.49 108.41,-226.05"/>
<polygon fill="black" stroke="black" points="111.67,-224.76 104.82,-216.67 105.13,-227.26 111.67,-224.76"/>
<text text-anchor="middle" x="125.74" y="-240.79" font-family="Times,serif" font-size="14.00"> 5</text>
</g>
<!-- 4&#45;&gt;15 -->
<g id="edge8" class="edge">
<title>4&#45;&gt;15</title>
<path fill="none" stroke="black" d="M145.24,-271.32C145.24,-226.48 145.24,-105.49 145.24,-49.57"/>
<polygon fill="black" stroke="black" points="148.74,-49.29 145.24,-39.29 141.74,-49.29 148.74,-49.29"/>
<text text-anchor="middle" x="154.24" y="-150.79" font-family="Times,serif" font-size="14.00"> 11</text>
</g>
<!-- 5 -->
<g id="node5" class="node">
<title>5</title>
<ellipse fill="none" stroke="black" cx="90.24" cy="-469.48" rx="18" ry="18"/>
<text text-anchor="middle" x="90.24" y="-465.78" font-family="Times,serif" font-size="14.00">5</text>
</g>
<!-- 5&#45;&gt;2 -->
<g id="edge9" class="edge">
<title>5&#45;&gt;2</title>
<path fill="none" stroke="black" d="M90.24,-451.1C90.24,-438.72 90.24,-421.85 90.24,-407.7"/>
<polygon fill="black" stroke="black" points="93.74,-407.53 90.24,-397.53 86.74,-407.53 93.74,-407.53"/>
<text text-anchor="middle" x="95.74" y="-420.78" font-family="Times,serif" font-size="14.00"> 8</text>
</g>
<!-- 8 -->
<g id="node8" class="node">
<title>8</title>
<ellipse fill="none" stroke="black" cx="36.24" cy="-379.48" rx="18" ry="18"/>
<text text-anchor="middle" x="36.24" y="-375.78" font-family="Times,serif" font-size="14.00">8</text>
</g>
<!-- 5&#45;&gt;8 -->
<g id="edge10" class="edge">
<title>5&#45;&gt;8</title>
<path fill="none" stroke="black" d="M81.08,-453.55C72.73,-439.94 60.26,-419.62 50.58,-403.86"/>
<polygon fill="black" stroke="black" points="53.48,-401.88 45.26,-395.19 47.51,-405.55 53.48,-401.88"/>
<text text-anchor="middle" x="71.74" y="-420.78" font-family="Times,serif" font-size="14.00"> 1</text>
</g>
<!-- 6 -->
<g id="node6" class="node">
<title>6</title>
<ellipse fill="none" stroke="black" cx="250.24" cy="-379.48" rx="18" ry="18"/>
<text text-anchor="middle" x="250.24" y="-375.78" font-family="Times,serif" font-size="14.00">6</text>
</g>
<!-- 6&#45;&gt;3 -->
<g id="edge13" class="edge">
<title>6&#45;&gt;3</title>
<path fill="none" stroke="black" d="M247.26,-361.73C242.33,-335.03 231.68,-281.34 218.24,-236.99 217.13,-233.33 215.83,-229.52 214.48,-225.79"/>
<polygon fill="black" stroke="black" points="217.7,-224.41 210.88,-216.31 211.16,-226.9 217.7,-224.41"/>
<text text-anchor="middle" x="241.74" y="-285.79" font-family="Times,serif" font-size="14.00"> 2</text>
</g>
<!-- 12 -->
<g id="node12" class="node">
<title>12</title>
<ellipse fill="green" stroke="green" cx="44.24" cy="-289.49" rx="19.5" ry="19.5"/>
<text text-anchor="middle" x="44.24" y="-285.79" font-family="Times,serif" font-size="14.00" fill="white">12</text>
</g>
<!-- 6&#45;&gt;12 -->
<g id="edge11" class="edge">
<title>6&#45;&gt;12</title>
<path fill="none" stroke="black" d="M235.47,-368.71C218.05,-357.5 187.95,-339.1 160.24,-326.99 131.43,-314.38 96.87,-304.09 73.01,-297.69"/>
<polygon fill="black" stroke="black" points="73.73,-294.26 63.17,-295.1 71.96,-301.03 73.73,-294.26"/>
<text text-anchor="middle" x="193.74" y="-330.79" font-family="Times,serif" font-size="14.00"> 2</text>
</g>
<!-- 7&#45;&gt;5 -->
<g id="edge14" class="edge">
<title>7&#45;&gt;5</title>
<path fill="none" stroke="black" d="M90.24,-539.89C90.24,-527.92 90.24,-511.68 90.24,-497.91"/>
<polygon fill="black" stroke="black" points="93.74,-497.53 90.24,-487.53 86.74,-497.53 93.74,-497.53"/>
<text text-anchor="middle" x="95.74" y="-510.78" font-family="Times,serif" font-size="14.00"> 1</text>
</g>
<!-- 8&#45;&gt;12 -->
<g id="edge15" class="edge">
<title>8&#45;&gt;12</title>
<path fill="none" stroke="black" d="M37.78,-361.52C38.87,-349.5 40.37,-333.09 41.64,-319.06"/>
<polygon fill="black" stroke="black" points="45.14,-319.2 42.56,-308.92 38.17,-318.56 45.14,-319.2"/>
<text text-anchor="middle" x="45.74" y="-330.79" font-family="Times,serif" font-size="14.00"> 1</text>
</g>
<!-- 13 -->
<g id="node13" class="node">
<title>13</title>
<ellipse fill="red" stroke="red" cx="98.24" cy="-109.49" rx="19.5" ry="19.5"/>
<text text-anchor="middle" x="98.24" y="-105.79" font-family="Times,serif" font-size="14.00" fill="white">13</text>
</g>
<!-- 9&#45;&gt;13 -->
<g id="edge12" class="edge">
<title>9&#45;&gt;13</title>
<path fill="none" stroke="black" d="M99.04,-181.11C98.91,-169.13 98.72,-152.95 98.56,-139.09"/>
<polygon fill="black" stroke="black" points="102.06,-139.02 98.45,-129.06 95.06,-139.1 102.06,-139.02"/>
<text text-anchor="middle" x="103.74" y="-150.79" font-family="Times,serif" font-size="14.00"> 1</text>
</g>
<!-- 10 -->
<g id="node10" class="node">
<title>10</title>
<ellipse fill="yellow" stroke="yellow" cx="145.24" cy="-469.48" rx="19.5" ry="19.5"/>
<text text-anchor="middle" x="145.24" y="-465.78" font-family="Times,serif" font-size="14.00">10</text>
</g>
<!-- 11 -->
<g id="node11" class="node">
<title>11</title>
<ellipse fill="blue" stroke="blue" cx="145.24" cy="-379.48" rx="19.5" ry="19.5"/>
<text text-anchor="middle" x="145.24" y="-375.78" font-family="Times,serif" font-size="14.00" fill="white">11</text>
</g>
<!-- 10&#45;&gt;11 -->
<g id="edge2" class="edge">
<title>10&#45;&gt;11</title>
<path fill="none" stroke="black" d="M145.24,-449.82C145.24,-438.04 145.24,-422.57 145.24,-409.24"/>
<polygon fill="black" stroke="black" points="148.74,-409.12 145.24,-399.12 141.74,-409.12 148.74,-409.12"/>
<text text-anchor="middle" x="150.74" y="-420.78" font-family="Times,serif" font-size="14.00"> 9</text>
</g>
<!-- 11&#45;&gt;3 -->
<g id="edge16" class="edge">
<title>11&#45;&gt;3</title>
<path fill="none" stroke="black" d="M152.56,-361.09C155.05,-355.06 157.82,-348.25 160.24,-341.99 175.46,-302.67 178.36,-292.44 190.24,-251.99 192.63,-243.86 195.09,-234.98 197.28,-226.9"/>
<polygon fill="black" stroke="black" points="200.66,-227.8 199.87,-217.24 193.9,-225.99 200.66,-227.8"/>
<text text-anchor="middle" x="189.74" y="-285.79" font-family="Times,serif" font-size="14.00"> 7</text>
</g>
<!-- 11&#45;&gt;4 -->
<g id="edge17" class="edge">
<title>11&#45;&gt;4</title>
<path fill="none" stroke="black" d="M145.24,-359.82C145.24,-347.64 145.24,-331.53 145.24,-317.9"/>
<polygon fill="black" stroke="black" points="148.74,-317.63 145.24,-307.63 141.74,-317.63 148.74,-317.63"/>
<text text-anchor="middle" x="150.74" y="-330.79" font-family="Times,serif" font-size="14.00"> 7</text>
</g>
<!-- 11&#45;&gt;12 -->
<g id="edge3" class="edge">
<title>11&#45;&gt;12</title>
<path fill="none" stroke="black" d="M130.77,-365.88C113.89,-351.17 85.82,-326.71 66.24,-309.66"/>
<polygon fill="black" stroke="black" points="68.52,-307 58.68,-303.07 63.92,-312.28 68.52,-307"/>
<text text-anchor="middle" x="105.74" y="-330.79" font-family="Times,serif" font-size="14.00"> 5</text>
</g>
<!-- 12&#45;&gt;13 -->
<g id="edge4" class="edge">
<title>12&#45;&gt;13</title>
<path fill="none" stroke="black" d="M31.7,-274C14.94,-252.76 -10.9,-212.2 5.24,-179.99 18.85,-152.84 48.66,-133.57 70.89,-122.31"/>
<polygon fill="black" stroke="black" points="72.68,-125.33 80.18,-117.84 69.65,-119.02 72.68,-125.33"/>
<text text-anchor="middle" x="10.74" y="-195.79" font-family="Times,serif" font-size="14.00"> 1</text>
</g>
<!-- 14 -->
<g id="node14" class="node">
<title>14</title>
<ellipse fill="none" stroke="black" cx="44.24" cy="-199.49" rx="19.5" ry="19.5"/>
<text text-anchor="middle" x="44.24" y="-195.79" font-family="Times,serif" font-size="14.00">14</text>
</g>
<!-- 12&#45;&gt;14 -->
<g id="edge18" class="edge">
<title>12&#45;&gt;14</title>
<path fill="none" stroke="black" d="M44.24,-269.83C44.24,-258.04 44.24,-242.58 44.24,-229.25"/>
<polygon fill="black" stroke="black" points="47.74,-229.13 44.24,-219.13 40.74,-229.13 47.74,-229.13"/>
<text text-anchor="middle" x="49.74" y="-240.79" font-family="Times,serif" font-size="14.00"> 8</text>
</g>
<!-- 13&#45;&gt;15 -->
<g id="edge19" class="edge">
<title>13&#45;&gt;15</title>
<path fill="none" stroke="black" d="M104.75,-90.93C108.75,-80.78 114.25,-67.9 120.24,-57 122.61,-52.68 125.36,-48.24 128.15,-44"/>
<polygon fill="black" stroke="black" points="131.07,-45.93 133.84,-35.7 125.3,-41.97 131.07,-45.93"/>
<text text-anchor="middle" x="125.74" y="-60.8" font-family="Times,serif" font-size="14.00"> 4</text>
</g>
</g>
</svg>
