<?xml version="1.0" encoding="UTF-8" standalone="no"?>
<!DOCTYPE svg PUBLIC "-//W3C//DTD SVG 1.1//EN"
 "http://www.w3.org/Graphics/SVG/1.1/DTD/svg11.dtd">
<!-- Generated by graphviz version 2.43.0 (0)
 -->
<!-- Title: %3 Pages: 1 -->
<svg width="409pt" height="752pt"
 viewBox="0.00 0.00 409.50 751.99" xmlns="http://www.w3.org/2000/svg" xmlns:xlink="http://www.w3.org/1999/xlink">
<g id="graph0" class="graph" transform="scale(1 1) rotate(0) translate(4 747.99)">
<title>%3</title>
<polygon fill="white" stroke="transparent" points="-4,4 -4,-747.99 405.5,-747.99 405.5,4 -4,4"/>
<!-- 1 -->
<g id="node1" class="node">
<title>1</title>
<ellipse fill="none" stroke="black" cx="73" cy="-287.99" rx="18" ry="18"/>
<text text-anchor="middle" x="73" y="-284.29" font-family="Times,serif" font-size="14.00">1</text>
</g>
<!-- 7 -->
<g id="node7" class="node">
<title>7</title>
<ellipse fill="none" stroke="black" cx="73" cy="-199.49" rx="18" ry="18"/>
<text text-anchor="middle" x="73" y="-195.79" font-family="Times,serif" font-size="14.00">7</text>
</g>
<!-- 1&#45;&gt;7 -->
<g id="edge1" class="edge">
<title>1&#45;&gt;7</title>
<path fill="none" stroke="black" d="M73,-269.9C73,-257.93 73,-241.69 73,-227.92"/>
<polygon fill="black" stroke="black" points="76.5,-227.55 73,-217.55 69.5,-227.55 76.5,-227.55"/>
<text text-anchor="middle" x="78.5" y="-240.79" font-family="Times,serif" font-size="14.00"> 9</text>
</g>
<!-- 2 -->
<g id="node2" class="node">
<title>2</title>
<ellipse fill="none" stroke="black" cx="204" cy="-464.99" rx="18" ry="18"/>
<text text-anchor="middle" x="204" y="-461.29" font-family="Times,serif" font-size="14.00">2</text>
</g>
<!-- 11 -->
<g id="node11" class="node">
<title>11</title>
<ellipse fill="none" stroke="black" cx="204" cy="-376.49" rx="19.5" ry="19.5"/>
<text text-anchor="middle" x="204" y="-372.79" font-family="Times,serif" font-size="14.00">11</text>
</g>
<!-- 2&#45;&gt;11 -->
<g id="edge2" class="edge">
<title>2&#45;&gt;11</title>
<path fill="none" stroke="black" d="M204,-446.9C204,-435.32 204,-419.74 204,-406.27"/>
<polygon fill="black" stroke="black" points="207.5,-406.04 204,-396.04 200.5,-406.04 207.5,-406.04"/>
<text text-anchor="middle" x="209.5" y="-417.79" font-family="Times,serif" font-size="14.00"> 9</text>
</g>
<!-- 3 -->
<g id="node3" class="node">
<title>3</title>
<ellipse fill="none" stroke="black" cx="219" cy="-199.49" rx="18" ry="18"/>
<text text-anchor="middle" x="219" y="-195.79" font-family="Times,serif" font-size="14.00">3</text>
</g>
<!-- 12 -->
<g id="node12" class="node">
<title>12</title>
<ellipse fill="green" stroke="green" cx="247" cy="-109.49" rx="19.5" ry="19.5"/>
<text text-anchor="middle" x="247" y="-105.79" font-family="Times,serif" font-size="14.00" fill="white">12</text>
</g>
<!-- 3&#45;&gt;12 -->
<g id="edge3" class="edge">
<title>3&#45;&gt;12</title>
<path fill="none" stroke="black" d="M224.27,-181.94C228.19,-169.6 233.64,-152.47 238.23,-138.07"/>
<polygon fill="black" stroke="black" points="241.68,-138.77 241.37,-128.18 235.01,-136.65 241.68,-138.77"/>
<text text-anchor="middle" x="240.5" y="-150.79" font-family="Times,serif" font-size="14.00"> 5</text>
</g>
<!-- 15 -->
<g id="node15" class="node">
<title>15</title>
<ellipse fill="none" stroke="black" cx="73" cy="-109.49" rx="19.5" ry="19.5"/>
<text text-anchor="middle" x="73" y="-105.79" font-family="Times,serif" font-size="14.00">15</text>
</g>
<!-- 3&#45;&gt;15 -->
<g id="edge5" class="edge">
<title>3&#45;&gt;15</title>
<path fill="none" stroke="black" d="M203.93,-189.41C178.97,-174.36 128.8,-144.12 98.33,-125.76"/>
<polygon fill="black" stroke="black" points="99.92,-122.63 89.55,-120.47 96.31,-128.63 99.92,-122.63"/>
<text text-anchor="middle" x="160.5" y="-150.79" font-family="Times,serif" font-size="14.00"> 2</text>
</g>
<!-- 4 -->
<g id="node4" class="node">
<title>4</title>
<ellipse fill="blue" stroke="blue" cx="165" cy="-287.99" rx="18" ry="18"/>
<text text-anchor="middle" x="165" y="-284.29" font-family="Times,serif" font-size="14.00" fill="white">4</text>
</g>
<!-- 4&#45;&gt;3 -->
<g id="edge6" class="edge">
<title>4&#45;&gt;3</title>
<path fill="none" stroke="black" d="M173.34,-271.94C178.99,-261.92 186.72,-248.53 194,-236.99 196.9,-232.4 200.1,-227.56 203.22,-222.96"/>
<polygon fill="black" stroke="black" points="206.23,-224.76 209.01,-214.54 200.46,-220.8 206.23,-224.76"/>
<text text-anchor="middle" x="199.5" y="-240.79" font-family="Times,serif" font-size="14.00"> 5</text>
</g>
<!-- 13 -->
<g id="node13" class="node">
<title>13</title>
<ellipse fill="none" stroke="black" cx="128" cy="-199.49" rx="19.5" ry="19.5"/>
<text text-anchor="middle" x="128" y="-195.79" font-family="Times,serif" font-size="14.00">13</text>
</g>
<!-- 4&#45;&gt;13 -->
<g id="edge4" class="edge">
<title>4&#45;&gt;13</title>
<path fill="none" stroke="black" d="M158.21,-271.12C152.96,-258.84 145.56,-241.55 139.4,-227.15"/>
<polygon fill="black" stroke="black" points="142.53,-225.56 135.38,-217.74 136.09,-228.31 142.53,-225.56"/>
<text text-anchor="middle" x="155.5" y="-240.79" font-family="Times,serif" font-size="14.00"> 1</text>
</g>
<!-- 5 -->
<g id="node5" class="node">
<title>5</title>
<ellipse fill="none" stroke="black" cx="18" cy="-109.49" rx="18" ry="18"/>
<text text-anchor="middle" x="18" y="-105.79" font-family="Times,serif" font-size="14.00">5</text>
</g>
<!-- 6 -->
<g id="node6" class="node">
<title>6</title>
<ellipse fill="none" stroke="black" cx="250" cy="-725.99" rx="18" ry="18"/>
<text text-anchor="middle" x="250" y="-722.29" font-family="Times,serif" font-size="14.00">6</text>
</g>
<!-- 6&#45;&gt;3 -->
<g id="edge14" class="edge">
<title>6&#45;&gt;3</title>
<path fill="none" stroke="black" d="M262.09,-712.31C275.71,-696.63 296,-668.51 296,-639.99 296,-639.99 296,-639.99 296,-286.99 296,-254.69 265.67,-228.86 243.08,-214.1"/>
<polygon fill="black" stroke="black" points="244.92,-211.13 234.58,-208.82 241.23,-217.07 244.92,-211.13"/>
<text text-anchor="middle" x="301.5" y="-461.29" font-family="Times,serif" font-size="14.00"> 2</text>
</g>
<!-- 9 -->
<g id="node9" class="node">
<title>9</title>
<ellipse fill="red" stroke="red" cx="250" cy="-638.99" rx="18" ry="18"/>
<text text-anchor="middle" x="250" y="-635.29" font-family="Times,serif" font-size="14.00" fill="white">9</text>
</g>
<!-- 6&#45;&gt;9 -->
<g id="edge7" class="edge">
<title>6&#45;&gt;9</title>
<path fill="none" stroke="black" d="M250,-707.79C250,-696.15 250,-680.53 250,-667.22"/>
<polygon fill="black" stroke="black" points="253.5,-667.16 250,-657.16 246.5,-667.16 253.5,-667.16"/>
<text text-anchor="middle" x="255.5" y="-678.79" font-family="Times,serif" font-size="14.00"> 5</text>
</g>
<!-- 6&#45;&gt;12 -->
<g id="edge13" class="edge">
<title>6&#45;&gt;12</title>
<path fill="none" stroke="black" d="M266.39,-717.71C291.09,-705.5 335,-678.39 335,-639.99 335,-639.99 335,-639.99 335,-198.49 335,-163.47 299.72,-137.52 273.84,-123.19"/>
<polygon fill="black" stroke="black" points="275.29,-120 264.81,-118.45 272.03,-126.2 275.29,-120"/>
<text text-anchor="middle" x="340.5" y="-417.79" font-family="Times,serif" font-size="14.00"> 2</text>
</g>
<!-- 7&#45;&gt;5 -->
<g id="edge15" class="edge">
<title>7&#45;&gt;5</title>
<path fill="none" stroke="black" d="M63.67,-183.56C55.16,-169.96 42.46,-149.63 32.61,-133.87"/>
<polygon fill="black" stroke="black" points="35.46,-131.83 27.19,-125.2 29.52,-135.54 35.46,-131.83"/>
<text text-anchor="middle" x="54.5" y="-150.79" font-family="Times,serif" font-size="14.00"> 1</text>
</g>
<!-- 7&#45;&gt;15 -->
<g id="edge8" class="edge">
<title>7&#45;&gt;15</title>
<path fill="none" stroke="black" d="M73,-181.11C73,-169.13 73,-152.95 73,-139.09"/>
<polygon fill="black" stroke="black" points="76.5,-139.06 73,-129.06 69.5,-139.06 76.5,-139.06"/>
<text text-anchor="middle" x="82" y="-150.79" font-family="Times,serif" font-size="14.00"> 11</text>
</g>
<!-- 8 -->
<g id="node8" class="node">
<title>8</title>
<ellipse fill="yellow" stroke="yellow" cx="204" cy="-551.99" rx="18" ry="18"/>
<text text-anchor="middle" x="204" y="-548.29" font-family="Times,serif" font-size="14.00">8</text>
</g>
<!-- 8&#45;&gt;2 -->
<g id="edge9" class="edge">
<title>8&#45;&gt;2</title>
<path fill="none" stroke="black" d="M204,-533.79C204,-522.15 204,-506.53 204,-493.22"/>
<polygon fill="black" stroke="black" points="207.5,-493.16 204,-483.16 200.5,-493.16 207.5,-493.16"/>
<text text-anchor="middle" x="209.5" y="-504.79" font-family="Times,serif" font-size="14.00"> 8</text>
</g>
<!-- 8&#45;&gt;12 -->
<g id="edge16" class="edge">
<title>8&#45;&gt;12</title>
<path fill="none" stroke="black" d="M211.94,-535.53C218.42,-522.05 227.12,-501.77 231,-482.99 259.95,-343.03 245.78,-304.84 250,-161.99 250.2,-155.33 250.27,-153.65 250,-146.99 249.9,-144.44 249.75,-141.78 249.58,-139.12"/>
<polygon fill="black" stroke="black" points="253.06,-138.75 248.82,-129.04 246.08,-139.28 253.06,-138.75"/>
<text text-anchor="middle" x="255.5" y="-327.79" font-family="Times,serif" font-size="14.00"> 1</text>
</g>
<!-- 9&#45;&gt;8 -->
<g id="edge10" class="edge">
<title>9&#45;&gt;8</title>
<path fill="none" stroke="black" d="M241.78,-622.79C234.91,-610.1 224.99,-591.77 217.04,-577.08"/>
<polygon fill="black" stroke="black" points="219.99,-575.18 212.15,-568.05 213.83,-578.51 219.99,-575.18"/>
<text text-anchor="middle" x="235.5" y="-591.79" font-family="Times,serif" font-size="14.00"> 1</text>
</g>
<!-- 9&#45;&gt;13 -->
<g id="edge12" class="edge">
<title>9&#45;&gt;13</title>
<path fill="none" stroke="black" d="M232.33,-635.03C196.58,-627.94 119,-606.4 119,-552.99 119,-552.99 119,-552.99 119,-286.99 119,-267.67 121.25,-246.05 123.5,-229.26"/>
<polygon fill="black" stroke="black" points="127.02,-229.39 124.95,-218.99 120.08,-228.4 127.02,-229.39"/>
<text text-anchor="middle" x="124.5" y="-417.79" font-family="Times,serif" font-size="14.00"> 1</text>
</g>
<!-- 10 -->
<g id="node10" class="node">
<title>10</title>
<ellipse fill="none" stroke="black" cx="382" cy="-199.49" rx="19.5" ry="19.5"/>
<text text-anchor="middle" x="382" y="-195.79" font-family="Times,serif" font-size="14.00">10</text>
</g>
<!-- 10&#45;&gt;12 -->
<g id="edge11" class="edge">
<title>10&#45;&gt;12</title>
<path fill="none" stroke="black" d="M374.49,-181.08C368.91,-169.96 360.3,-155.99 349,-146.99 327.75,-130.08 298.03,-120.64 276.15,-115.62"/>
<polygon fill="black" stroke="black" points="276.62,-112.14 266.11,-113.49 275.17,-118.99 276.62,-112.14"/>
<text text-anchor="middle" x="367.5" y="-150.79" font-family="Times,serif" font-size="14.00"> 2</text>
</g>
<!-- 11&#45;&gt;3 -->
<g id="edge17" class="edge">
<title>11&#45;&gt;3</title>
<path fill="none" stroke="black" d="M205.61,-356.76C208.26,-325.76 213.59,-263.63 216.66,-227.76"/>
<polygon fill="black" stroke="black" points="220.17,-227.79 217.54,-217.53 213.2,-227.19 220.17,-227.79"/>
<text text-anchor="middle" x="218.5" y="-284.29" font-family="Times,serif" font-size="14.00"> 7</text>
</g>
<!-- 11&#45;&gt;4 -->
<g id="edge18" class="edge">
<title>11&#45;&gt;4</title>
<path fill="none" stroke="black" d="M196.29,-358.4C190.56,-345.68 182.64,-328.12 176.21,-313.85"/>
<polygon fill="black" stroke="black" points="179.33,-312.27 172.03,-304.59 172.95,-315.14 179.33,-312.27"/>
<text text-anchor="middle" x="192.5" y="-327.79" font-family="Times,serif" font-size="14.00"> 7</text>
</g>
<!-- 14 -->
<g id="node14" class="node">
<title>14</title>
<ellipse fill="none" stroke="black" cx="247" cy="-19.5" rx="19.5" ry="19.5"/>
<text text-anchor="middle" x="247" y="-15.8" font-family="Times,serif" font-size="14.00">14</text>
</g>
<!-- 12&#45;&gt;14 -->
<g id="edge19" class="edge">
<title>12&#45;&gt;14</title>
<path fill="none" stroke="black" d="M247,-89.83C247,-78.05 247,-62.59 247,-49.26"/>
<polygon fill="black" stroke="black" points="250.5,-49.13 247,-39.13 243.5,-49.13 250.5,-49.13"/>
<text text-anchor="middle" x="252.5" y="-60.8" font-family="Times,serif" font-size="14.00"> 8</text>
</g>
<!-- 13&#45;&gt;15 -->
<g id="edge20" class="edge">
<title>13&#45;&gt;15</title>
<path fill="none" stroke="black" d="M117.91,-182.35C109.69,-169.2 97.95,-150.42 88.53,-135.35"/>
<polygon fill="black" stroke="black" points="91.29,-133.16 83.02,-126.53 85.36,-136.87 91.29,-133.16"/>
<text text-anchor="middle" x="109.5" y="-150.79" font-family="Times,serif" font-size="14.00"> 4</text>
</g>
</g>
</svg>
