<?xml version="1.0" encoding="UTF-8" standalone="no"?>
<!DOCTYPE svg PUBLIC "-//W3C//DTD SVG 1.1//EN"
 "http://www.w3.org/Graphics/SVG/1.1/DTD/svg11.dtd">
<!-- Generated by graphviz version 2.43.0 (0)
 -->
<!-- Title: %3 Pages: 1 -->
<svg width="268pt" height="755pt"
 viewBox="0.00 0.00 267.76 754.98" xmlns="http://www.w3.org/2000/svg" xmlns:xlink="http://www.w3.org/1999/xlink">
<g id="graph0" class="graph" transform="scale(1 1) rotate(0) translate(4 750.98)">
<title>%3</title>
<polygon fill="white" stroke="transparent" points="-4,4 -4,-750.98 263.76,-750.98 263.76,4 -4,4"/>
<!-- 1 -->
<g id="node1" class="node">
<title>1</title>
<ellipse fill="none" stroke="black" cx="77.26" cy="-379.48" rx="18" ry="18"/>
<text text-anchor="middle" x="77.26" y="-375.78" font-family="Times,serif" font-size="14.00">1</text>
</g>
<!-- 3 -->
<g id="node3" class="node">
<title>3</title>
<ellipse fill="none" stroke="black" cx="180.26" cy="-289.49" rx="18" ry="18"/>
<text text-anchor="middle" x="180.26" y="-285.79" font-family="Times,serif" font-size="14.00">3</text>
</g>
<!-- 1&#45;&#45;3 -->
<g id="edge17" class="edge">
<title>1&#45;&#45;3</title>
<path fill="none" stroke="black" d="M83.38,-362.15C88.32,-350.93 96.26,-336.41 107.26,-326.99 123.94,-312.71 133.86,-319.26 153.26,-308.99 157.58,-306.7 162.05,-303.86 166.07,-301.1"/>
<text text-anchor="middle" x="112.76" y="-330.79" font-family="Times,serif" font-size="14.00"> 7</text>
</g>
<!-- 4 -->
<g id="node4" class="node">
<title>4</title>
<ellipse fill="blue" stroke="blue" cx="72.26" cy="-289.49" rx="18" ry="18"/>
<text text-anchor="middle" x="72.26" y="-285.79" font-family="Times,serif" font-size="14.00" fill="white">4</text>
</g>
<!-- 1&#45;&#45;4 -->
<g id="edge18" class="edge">
<title>1&#45;&#45;4</title>
<path fill="none" stroke="black" d="M75.07,-361.43C74.37,-355.31 73.67,-348.35 73.26,-341.99 72.53,-330.56 72.28,-317.69 72.21,-307.67"/>
<text text-anchor="middle" x="78.76" y="-330.79" font-family="Times,serif" font-size="14.00"> 7</text>
</g>
<!-- 2 -->
<g id="node2" class="node">
<title>2</title>
<ellipse fill="none" stroke="black" cx="186.26" cy="-467.98" rx="18" ry="18"/>
<text text-anchor="middle" x="186.26" y="-464.28" font-family="Times,serif" font-size="14.00">2</text>
</g>
<!-- 14 -->
<g id="node14" class="node">
<title>14</title>
<ellipse fill="none" stroke="black" cx="186.26" cy="-379.48" rx="19.5" ry="19.5"/>
<text text-anchor="middle" x="186.26" y="-375.78" font-family="Times,serif" font-size="14.00">14</text>
</g>
<!-- 2&#45;&#45;14 -->
<g id="edge19" class="edge">
<title>2&#45;&#45;14</title>
<path fill="none" stroke="black" d="M186.26,-449.89C186.26,-435.22 186.26,-414.12 186.26,-399.04"/>
<text text-anchor="middle" x="191.76" y="-420.78" font-family="Times,serif" font-size="14.00"> 8</text>
</g>
<!-- 15 -->
<g id="node15" class="node">
<title>15</title>
<ellipse fill="yellow" stroke="yellow" cx="185.26" cy="-199.49" rx="19.5" ry="19.5"/>
<text text-anchor="middle" x="185.26" y="-195.79" font-family="Times,serif" font-size="14.00">15</text>
</g>
<!-- 3&#45;&#45;15 -->
<g id="edge20" class="edge">
<title>3&#45;&#45;15</title>
<path fill="none" stroke="black" d="M180.21,-271.31C180.28,-261.29 180.53,-248.41 181.26,-236.99 181.64,-231.14 182.26,-224.78 182.9,-219.03"/>
<text text-anchor="middle" x="186.76" y="-240.79" font-family="Times,serif" font-size="14.00"> 4</text>
</g>
<!-- 5 -->
<g id="node5" class="node">
<title>5</title>
<ellipse fill="none" stroke="black" cx="73.26" cy="-199.49" rx="18" ry="18"/>
<text text-anchor="middle" x="73.26" y="-195.79" font-family="Times,serif" font-size="14.00">5</text>
</g>
<!-- 12 -->
<g id="node12" class="node">
<title>12</title>
<ellipse fill="none" stroke="black" cx="74.26" cy="-109.49" rx="19.5" ry="19.5"/>
<text text-anchor="middle" x="74.26" y="-105.79" font-family="Times,serif" font-size="14.00">12</text>
</g>
<!-- 5&#45;&#45;12 -->
<g id="edge13" class="edge">
<title>5&#45;&#45;12</title>
<path fill="none" stroke="black" d="M73.46,-181.11C73.63,-166.08 73.88,-144.42 74.05,-129.06"/>
<text text-anchor="middle" x="79.76" y="-150.79" font-family="Times,serif" font-size="14.00"> 2</text>
</g>
<!-- 6 -->
<g id="node6" class="node">
<title>6</title>
<ellipse fill="none" stroke="black" cx="167.26" cy="-728.98" rx="18" ry="18"/>
<text text-anchor="middle" x="167.26" y="-725.28" font-family="Times,serif" font-size="14.00">6</text>
</g>
<!-- 6&#45;&#45;3 -->
<g id="edge14" class="edge">
<title>6&#45;&#45;3</title>
<path fill="none" stroke="black" d="M152.51,-718.09C133.33,-703.91 102.26,-675.86 102.26,-642.98 102.26,-642.98 102.26,-642.98 102.26,-510.48 102.26,-428.83 150.59,-339.42 171.16,-305.05"/>
<text text-anchor="middle" x="107.76" y="-507.78" font-family="Times,serif" font-size="14.00"> 2</text>
</g>
<!-- 9 -->
<g id="node9" class="node">
<title>9</title>
<ellipse fill="none" stroke="black" cx="167.26" cy="-641.98" rx="18" ry="18"/>
<text text-anchor="middle" x="167.26" y="-638.28" font-family="Times,serif" font-size="14.00">9</text>
</g>
<!-- 6&#45;&#45;9 -->
<g id="edge7" class="edge">
<title>6&#45;&#45;9</title>
<path fill="none" stroke="black" d="M167.26,-710.78C167.26,-696.03 167.26,-674.9 167.26,-660.16"/>
<text text-anchor="middle" x="172.76" y="-681.78" font-family="Times,serif" font-size="14.00"> 5</text>
</g>
<!-- 7 -->
<g id="node7" class="node">
<title>7</title>
<ellipse fill="green" stroke="green" cx="126.26" cy="-289.49" rx="18" ry="18"/>
<text text-anchor="middle" x="126.26" y="-285.79" font-family="Times,serif" font-size="14.00" fill="white">7</text>
</g>
<!-- 7&#45;&#45;5 -->
<g id="edge15" class="edge">
<title>7&#45;&#45;5</title>
<path fill="none" stroke="black" d="M115.68,-274.58C110.77,-267.89 104.99,-259.68 100.26,-251.99 93.08,-240.29 85.9,-226.49 80.76,-216.12"/>
<text text-anchor="middle" x="105.76" y="-240.79" font-family="Times,serif" font-size="14.00"> 1</text>
</g>
<!-- 7&#45;&#45;15 -->
<g id="edge8" class="edge">
<title>7&#45;&#45;15</title>
<path fill="none" stroke="black" d="M135.19,-273.41C141.44,-263.03 150.1,-249.01 158.26,-236.99 163.13,-229.82 168.8,-222.07 173.69,-215.57"/>
<text text-anchor="middle" x="167.26" y="-240.79" font-family="Times,serif" font-size="14.00"> 11</text>
</g>
<!-- 8 -->
<g id="node8" class="node">
<title>8</title>
<ellipse fill="none" stroke="black" cx="186.26" cy="-554.98" rx="18" ry="18"/>
<text text-anchor="middle" x="186.26" y="-551.28" font-family="Times,serif" font-size="14.00">8</text>
</g>
<!-- 8&#45;&#45;2 -->
<g id="edge9" class="edge">
<title>8&#45;&#45;2</title>
<path fill="none" stroke="black" d="M186.26,-536.78C186.26,-522.03 186.26,-500.9 186.26,-486.16"/>
<text text-anchor="middle" x="191.76" y="-507.78" font-family="Times,serif" font-size="14.00"> 8</text>
</g>
<!-- 8&#45;&#45;12 -->
<g id="edge16" class="edge">
<title>8&#45;&#45;12</title>
<path fill="none" stroke="black" d="M172.41,-543.38C143.77,-520.58 78.41,-463.65 50.26,-398.98 5.36,-295.83 -23.72,-247.78 26.26,-146.99 32.59,-134.24 45.74,-124.73 56.68,-118.63"/>
<text text-anchor="middle" x="30.76" y="-330.79" font-family="Times,serif" font-size="14.00"> 1</text>
</g>
<!-- 9&#45;&#45;8 -->
<g id="edge10" class="edge">
<title>9&#45;&#45;8</title>
<path fill="none" stroke="black" d="M171.02,-624.19C174.35,-609.29 179.19,-587.63 182.52,-572.74"/>
<text text-anchor="middle" x="182.76" y="-594.78" font-family="Times,serif" font-size="14.00"> 1</text>
</g>
<!-- 13 -->
<g id="node13" class="node">
<title>13</title>
<ellipse fill="red" stroke="red" cx="240.26" cy="-289.49" rx="19.5" ry="19.5"/>
<text text-anchor="middle" x="240.26" y="-285.79" font-family="Times,serif" font-size="14.00" fill="white">13</text>
</g>
<!-- 9&#45;&#45;13 -->
<g id="edge12" class="edge">
<title>9&#45;&#45;13</title>
<path fill="none" stroke="black" d="M182.74,-632.21C204.17,-618.79 240.26,-591 240.26,-555.98 240.26,-555.98 240.26,-555.98 240.26,-378.48 240.26,-354.5 240.26,-326.84 240.26,-309.03"/>
<text text-anchor="middle" x="245.76" y="-464.28" font-family="Times,serif" font-size="14.00"> 1</text>
</g>
<!-- 10 -->
<g id="node10" class="node">
<title>10</title>
<ellipse fill="none" stroke="black" cx="128.26" cy="-199.49" rx="19.5" ry="19.5"/>
<text text-anchor="middle" x="128.26" y="-195.79" font-family="Times,serif" font-size="14.00">10</text>
</g>
<!-- 10&#45;&#45;12 -->
<g id="edge11" class="edge">
<title>10&#45;&#45;12</title>
<path fill="none" stroke="black" d="M118.36,-182.35C108.61,-166.47 93.83,-142.37 84.1,-126.53"/>
<text text-anchor="middle" x="110.76" y="-150.79" font-family="Times,serif" font-size="14.00"> 2</text>
</g>
<!-- 11 -->
<g id="node11" class="node">
<title>11</title>
<ellipse fill="none" stroke="black" cx="43.26" cy="-19.5" rx="19.5" ry="19.5"/>
<text text-anchor="middle" x="43.26" y="-15.8" font-family="Times,serif" font-size="14.00">11</text>
</g>
<!-- 11&#45;&#45;7 -->
<g id="edge1" class="edge">
<title>11&#45;&#45;7</title>
<path fill="none" stroke="black" d="M38.86,-38.56C31.02,-74.78 17.92,-158.05 46.26,-218.99 53.32,-234.17 90.78,-262.89 111.84,-278.23"/>
<text text-anchor="middle" x="36.76" y="-150.79" font-family="Times,serif" font-size="14.00"> 9</text>
</g>
<!-- 12&#45;&#45;11 -->
<g id="edge2" class="edge">
<title>12&#45;&#45;11</title>
<path fill="none" stroke="black" d="M67.99,-90.69C62.61,-75.42 54.9,-53.54 49.53,-38.28"/>
<text text-anchor="middle" x="66.76" y="-60.8" font-family="Times,serif" font-size="14.00"> 9</text>
</g>
<!-- 13&#45;&#45;12 -->
<g id="edge3" class="edge">
<title>13&#45;&#45;12</title>
<path fill="none" stroke="black" d="M240.21,-269.93C239.21,-246.53 234.26,-206.2 213.26,-179.99 182.05,-141.04 123.36,-122.09 93.2,-114.58"/>
<text text-anchor="middle" x="237.76" y="-195.79" font-family="Times,serif" font-size="14.00"> 5</text>
</g>
<!-- 13&#45;&#45;15 -->
<g id="edge5" class="edge">
<title>13&#45;&#45;15</title>
<path fill="none" stroke="black" d="M229.3,-273.03C224.84,-266.59 219.7,-259 215.26,-251.99 207.96,-240.45 200.21,-227.12 194.42,-216.91"/>
<text text-anchor="middle" x="220.76" y="-240.79" font-family="Times,serif" font-size="14.00"> 2</text>
</g>
<!-- 14&#45;&#45;3 -->
<g id="edge6" class="edge">
<title>14&#45;&#45;3</title>
<path fill="none" stroke="black" d="M183.3,-359.96C182.49,-354.22 181.72,-347.85 181.26,-341.99 180.37,-330.57 180.12,-317.7 180.1,-307.68"/>
<text text-anchor="middle" x="186.76" y="-330.79" font-family="Times,serif" font-size="14.00"> 5</text>
</g>
<!-- 14&#45;&#45;13 -->
<g id="edge4" class="edge">
<title>14&#45;&#45;13</title>
<path fill="none" stroke="black" d="M195.05,-362.04C200.62,-351.82 208.11,-338.49 215.26,-326.99 219.65,-319.94 224.78,-312.35 229.25,-305.92"/>
<text text-anchor="middle" x="220.76" y="-330.79" font-family="Times,serif" font-size="14.00"> 1</text>
</g>
</g>
</svg>
