<?xml version="1.0" encoding="UTF-8" standalone="no"?>
<!DOCTYPE svg PUBLIC "-//W3C//DTD SVG 1.1//EN"
 "http://www.w3.org/Graphics/SVG/1.1/DTD/svg11.dtd">
<!-- Generated by graphviz version 2.43.0 (0)
 -->
<!-- Title: %3 Pages: 1 -->
<svg width="239pt" height="755pt"
 viewBox="0.00 0.00 239.50 754.98" xmlns="http://www.w3.org/2000/svg" xmlns:xlink="http://www.w3.org/1999/xlink">
<g id="graph0" class="graph" transform="scale(1 1) rotate(0) translate(4 750.98)">
<title>%3</title>
<polygon fill="white" stroke="transparent" points="-4,4 -4,-750.98 235.5,-750.98 235.5,4 -4,4"/>
<!-- 1 -->
<g id="node1" class="node">
<title>1</title>
<ellipse fill="none" stroke="black" cx="178.5" cy="-641.98" rx="18" ry="18"/>
<text text-anchor="middle" x="178.5" y="-638.28" font-family="Times,serif" font-size="14.00">1</text>
</g>
<!-- 3 -->
<g id="node3" class="node">
<title>3</title>
<ellipse fill="none" stroke="black" cx="178.5" cy="-553.48" rx="18" ry="18"/>
<text text-anchor="middle" x="178.5" y="-549.78" font-family="Times,serif" font-size="14.00">3</text>
</g>
<!-- 1&#45;&#45;3 -->
<g id="edge16" class="edge">
<title>1&#45;&#45;3</title>
<path fill="none" stroke="black" d="M178.5,-623.89C178.5,-608.73 178.5,-586.69 178.5,-571.54"/>
<text text-anchor="middle" x="184" y="-594.78" font-family="Times,serif" font-size="14.00"> 7</text>
</g>
<!-- 2 -->
<g id="node2" class="node">
<title>2</title>
<ellipse fill="red" stroke="red" cx="118.5" cy="-463.49" rx="18" ry="18"/>
<text text-anchor="middle" x="118.5" y="-459.79" font-family="Times,serif" font-size="14.00" fill="white">2</text>
</g>
<!-- 4 -->
<g id="node4" class="node">
<title>4</title>
<ellipse fill="none" stroke="black" cx="118.5" cy="-373.49" rx="18" ry="18"/>
<text text-anchor="middle" x="118.5" y="-369.79" font-family="Times,serif" font-size="14.00">4</text>
</g>
<!-- 2&#45;&#45;4 -->
<g id="edge17" class="edge">
<title>2&#45;&#45;4</title>
<path fill="none" stroke="black" d="M118.5,-445.1C118.5,-429.58 118.5,-406.97 118.5,-391.54"/>
<text text-anchor="middle" x="124" y="-414.79" font-family="Times,serif" font-size="14.00"> 7</text>
</g>
<!-- 15 -->
<g id="node15" class="node">
<title>15</title>
<ellipse fill="yellow" stroke="yellow" cx="173.5" cy="-373.49" rx="19.5" ry="19.5"/>
<text text-anchor="middle" x="173.5" y="-369.79" font-family="Times,serif" font-size="14.00">15</text>
</g>
<!-- 2&#45;&#45;15 -->
<g id="edge5" class="edge">
<title>2&#45;&#45;15</title>
<path fill="none" stroke="black" d="M127.83,-447.56C137.76,-431.67 153.41,-406.63 163.56,-390.39"/>
<text text-anchor="middle" x="154" y="-414.79" font-family="Times,serif" font-size="14.00"> 2</text>
</g>
<!-- 12 -->
<g id="node12" class="node">
<title>12</title>
<ellipse fill="blue" stroke="blue" cx="63.5" cy="-463.49" rx="19.5" ry="19.5"/>
<text text-anchor="middle" x="63.5" y="-459.79" font-family="Times,serif" font-size="14.00" fill="white">12</text>
</g>
<!-- 3&#45;&#45;12 -->
<g id="edge3" class="edge">
<title>3&#45;&#45;12</title>
<path fill="none" stroke="black" d="M167.9,-538.38C158.91,-527.15 145.15,-511.59 130.5,-500.99 115.03,-489.79 108.18,-492.27 91.5,-482.99 87.43,-480.72 83.16,-478.06 79.23,-475.48"/>
<text text-anchor="middle" x="152" y="-504.79" font-family="Times,serif" font-size="14.00"> 5</text>
</g>
<!-- 3&#45;&#45;15 -->
<g id="edge8" class="edge">
<title>3&#45;&#45;15</title>
<path fill="none" stroke="black" d="M178.02,-535.42C177.08,-501.92 175,-427.81 174.02,-393.1"/>
<text text-anchor="middle" x="181" y="-459.79" font-family="Times,serif" font-size="14.00"> 4</text>
</g>
<!-- 5 -->
<g id="node5" class="node">
<title>5</title>
<ellipse fill="none" stroke="black" cx="174.5" cy="-197.99" rx="18" ry="18"/>
<text text-anchor="middle" x="174.5" y="-194.29" font-family="Times,serif" font-size="14.00">5</text>
</g>
<!-- 14 -->
<g id="node14" class="node">
<title>14</title>
<ellipse fill="green" stroke="green" cx="174.5" cy="-109.49" rx="19.5" ry="19.5"/>
<text text-anchor="middle" x="174.5" y="-105.79" font-family="Times,serif" font-size="14.00" fill="white">14</text>
</g>
<!-- 5&#45;&#45;14 -->
<g id="edge18" class="edge">
<title>5&#45;&#45;14</title>
<path fill="none" stroke="black" d="M174.5,-179.9C174.5,-165.23 174.5,-144.13 174.5,-129.05"/>
<text text-anchor="middle" x="180" y="-150.79" font-family="Times,serif" font-size="14.00"> 8</text>
</g>
<!-- 6 -->
<g id="node6" class="node">
<title>6</title>
<ellipse fill="none" stroke="black" cx="121.5" cy="-728.98" rx="18" ry="18"/>
<text text-anchor="middle" x="121.5" y="-725.28" font-family="Times,serif" font-size="14.00">6</text>
</g>
<!-- 6&#45;&#45;3 -->
<g id="edge13" class="edge">
<title>6&#45;&#45;3</title>
<path fill="none" stroke="black" d="M137.51,-720.59C157.69,-710.27 191.44,-689.45 205.5,-659.98 220.15,-629.27 200.85,-589.59 188.1,-568.74"/>
<text text-anchor="middle" x="216" y="-638.28" font-family="Times,serif" font-size="14.00"> 2</text>
</g>
<!-- 9 -->
<g id="node9" class="node">
<title>9</title>
<ellipse fill="none" stroke="black" cx="121.5" cy="-641.98" rx="18" ry="18"/>
<text text-anchor="middle" x="121.5" y="-638.28" font-family="Times,serif" font-size="14.00">9</text>
</g>
<!-- 6&#45;&#45;9 -->
<g id="edge7" class="edge">
<title>6&#45;&#45;9</title>
<path fill="none" stroke="black" d="M121.5,-710.78C121.5,-696.03 121.5,-674.9 121.5,-660.16"/>
<text text-anchor="middle" x="127" y="-681.78" font-family="Times,serif" font-size="14.00"> 5</text>
</g>
<!-- 7 -->
<g id="node7" class="node">
<title>7</title>
<ellipse fill="none" stroke="black" cx="63.5" cy="-284.99" rx="18" ry="18"/>
<text text-anchor="middle" x="63.5" y="-281.29" font-family="Times,serif" font-size="14.00">7</text>
</g>
<!-- 7&#45;&#45;5 -->
<g id="edge14" class="edge">
<title>7&#45;&#45;5</title>
<path fill="none" stroke="black" d="M77.56,-273.23C98.91,-256.88 139.27,-225.97 160.55,-209.67"/>
<text text-anchor="middle" x="131" y="-237.79" font-family="Times,serif" font-size="14.00"> 1</text>
</g>
<!-- 8 -->
<g id="node8" class="node">
<title>8</title>
<ellipse fill="none" stroke="black" cx="118.5" cy="-553.48" rx="18" ry="18"/>
<text text-anchor="middle" x="118.5" y="-549.78" font-family="Times,serif" font-size="14.00">8</text>
</g>
<!-- 8&#45;&#45;2 -->
<g id="edge9" class="edge">
<title>8&#45;&#45;2</title>
<path fill="none" stroke="black" d="M118.5,-535.1C118.5,-519.57 118.5,-496.96 118.5,-481.54"/>
<text text-anchor="middle" x="124" y="-504.79" font-family="Times,serif" font-size="14.00"> 8</text>
</g>
<!-- 8&#45;&#45;12 -->
<g id="edge15" class="edge">
<title>8&#45;&#45;12</title>
<path fill="none" stroke="black" d="M109.17,-537.56C99.24,-521.67 83.59,-496.63 73.43,-480.38"/>
<text text-anchor="middle" x="99" y="-504.79" font-family="Times,serif" font-size="14.00"> 1</text>
</g>
<!-- 9&#45;&#45;8 -->
<g id="edge10" class="edge">
<title>9&#45;&#45;8</title>
<path fill="none" stroke="black" d="M120.91,-623.89C120.38,-608.73 119.62,-586.69 119.09,-571.54"/>
<text text-anchor="middle" x="125" y="-594.78" font-family="Times,serif" font-size="14.00"> 1</text>
</g>
<!-- 13 -->
<g id="node13" class="node">
<title>13</title>
<ellipse fill="none" stroke="black" cx="19.5" cy="-19.5" rx="19.5" ry="19.5"/>
<text text-anchor="middle" x="19.5" y="-15.8" font-family="Times,serif" font-size="14.00">13</text>
</g>
<!-- 9&#45;&#45;13 -->
<g id="edge12" class="edge">
<title>9&#45;&#45;13</title>
<path fill="none" stroke="black" d="M104.09,-636.89C71.26,-628.03 3.5,-603.76 3.5,-554.48 3.5,-554.48 3.5,-554.48 3.5,-108.49 3.5,-83.96 9.59,-56.19 14.26,-38.53"/>
<text text-anchor="middle" x="9" y="-324.79" font-family="Times,serif" font-size="14.00"> 1</text>
</g>
<!-- 10 -->
<g id="node10" class="node">
<title>10</title>
<ellipse fill="none" stroke="black" cx="50.5" cy="-553.48" rx="19.5" ry="19.5"/>
<text text-anchor="middle" x="50.5" y="-549.78" font-family="Times,serif" font-size="14.00">10</text>
</g>
<!-- 10&#45;&#45;12 -->
<g id="edge11" class="edge">
<title>10&#45;&#45;12</title>
<path fill="none" stroke="black" d="M49.53,-533.77C49.36,-523.94 49.67,-511.74 51.5,-500.99 52.57,-494.67 54.53,-487.96 56.55,-482.04"/>
<text text-anchor="middle" x="57" y="-504.79" font-family="Times,serif" font-size="14.00"> 2</text>
</g>
<!-- 11 -->
<g id="node11" class="node">
<title>11</title>
<ellipse fill="none" stroke="black" cx="63.5" cy="-373.49" rx="19.5" ry="19.5"/>
<text text-anchor="middle" x="63.5" y="-369.79" font-family="Times,serif" font-size="14.00">11</text>
</g>
<!-- 11&#45;&#45;7 -->
<g id="edge1" class="edge">
<title>11&#45;&#45;7</title>
<path fill="none" stroke="black" d="M63.5,-353.72C63.5,-338.72 63.5,-317.85 63.5,-303.26"/>
<text text-anchor="middle" x="69" y="-324.79" font-family="Times,serif" font-size="14.00"> 9</text>
</g>
<!-- 12&#45;&#45;11 -->
<g id="edge2" class="edge">
<title>12&#45;&#45;11</title>
<path fill="none" stroke="black" d="M63.5,-443.83C63.5,-428.89 63.5,-408.05 63.5,-393.13"/>
<text text-anchor="middle" x="69" y="-414.79" font-family="Times,serif" font-size="14.00"> 2</text>
</g>
<!-- 14&#45;&#45;3 -->
<g id="edge6" class="edge">
<title>14&#45;&#45;3</title>
<path fill="none" stroke="black" d="M187.31,-124.29C200.92,-140.43 220.5,-168.59 220.5,-196.99 220.5,-464.49 220.5,-464.49 220.5,-464.49 220.5,-493.27 201.98,-522.63 189.53,-539.11"/>
<text text-anchor="middle" x="226" y="-324.79" font-family="Times,serif" font-size="14.00"> 5</text>
</g>
<!-- 14&#45;&#45;13 -->
<g id="edge4" class="edge">
<title>14&#45;&#45;13</title>
<path fill="none" stroke="black" d="M157.91,-99.08C128.23,-82.23 66.37,-47.11 36.44,-30.11"/>
<text text-anchor="middle" x="111" y="-60.8" font-family="Times,serif" font-size="14.00"> 1</text>
</g>
</g>
</svg>
